<svg width="54" height="38" viewBox="0 0 54 38" fill="none" xmlns="http://www.w3.org/2000/svg">
<path d="M24.3428 22.3027C24.3428 27.2181 23.3255 30.9779 21.291 33.582C19.2565 36.1862 16.278 37.4883 12.3555 37.4883C8.48177 37.4883 5.51953 36.2106 3.46875 33.6553C1.41797 31.0999 0.368164 27.4378 0.319336 22.6689V16.126C0.319336 11.1618 1.34473 7.39388 3.39551 4.82227C5.46257 2.25065 8.43294 0.964844 12.3066 0.964844C16.1803 0.964844 19.1426 2.24251 21.1934 4.79785C23.2441 7.33691 24.2939 10.9909 24.3428 15.7598V22.3027ZM17.2871 15.125C17.2871 12.179 16.8802 10.0387 16.0664 8.7041C15.2689 7.35319 14.0156 6.67773 12.3066 6.67773C10.6465 6.67773 9.41764 7.32064 8.62012 8.60645C7.83887 9.87598 7.42383 11.8698 7.375 14.5879V23.2305C7.375 26.1276 7.76562 28.2842 8.54688 29.7002C9.3444 31.0999 10.6139 31.7998 12.3555 31.7998C14.0807 31.7998 15.3258 31.1243 16.0908 29.7734C16.8558 28.4225 17.2546 26.3555 17.2871 23.5723V15.125ZM53.4932 37H29.1279V32.166L40.627 19.9102C42.2057 18.1849 43.3695 16.6794 44.1182 15.3936C44.8831 14.1077 45.2656 12.887 45.2656 11.7314C45.2656 10.1527 44.8669 8.91569 44.0693 8.02051C43.2718 7.10905 42.1325 6.65332 40.6514 6.65332C39.0563 6.65332 37.7949 7.20671 36.8672 8.31348C35.9557 9.40397 35.5 10.8444 35.5 12.6348H28.4199C28.4199 10.4701 28.9326 8.49251 29.958 6.70215C30.9997 4.91178 32.4645 3.51204 34.3525 2.50293C36.2406 1.47754 38.3809 0.964844 40.7734 0.964844C44.4355 0.964844 47.2757 1.84375 49.2939 3.60156C51.3285 5.35938 52.3457 7.84147 52.3457 11.0479C52.3457 12.8057 51.89 14.596 50.9785 16.4189C50.0671 18.2419 48.5046 20.3659 46.291 22.791L38.21 31.3115H53.4932V37Z" fill="#A07B50"/>
</svg>
