<svg width="54" height="37" viewBox="0 0 54 37" fill="none" xmlns="http://www.w3.org/2000/svg">
<path d="M24.8872 21.3943C24.8872 26.3097 23.87 30.0694 21.8354 32.6736C19.8009 35.2778 16.8224 36.5798 12.8999 36.5798C9.0262 36.5798 6.06396 35.3022 4.01318 32.7468C1.9624 30.1915 0.912598 26.5294 0.86377 21.7605V15.2175C0.86377 10.2533 1.88916 6.48543 3.93994 3.91382C6.007 1.3422 8.97738 0.0563965 12.8511 0.0563965C16.7248 0.0563965 19.687 1.33407 21.7378 3.8894C23.7886 6.42847 24.8384 10.0824 24.8872 14.8513V21.3943ZM17.8315 14.2166C17.8315 11.2706 17.4246 9.13029 16.6108 7.79565C15.8133 6.44474 14.5601 5.76929 12.8511 5.76929C11.1909 5.76929 9.96208 6.41219 9.16455 7.698C8.3833 8.96753 7.96826 10.9613 7.91943 13.6794V22.322C7.91943 25.2192 8.31006 27.3757 9.09131 28.7917C9.88883 30.1915 11.1584 30.8914 12.8999 30.8914C14.6252 30.8914 15.8703 30.2159 16.6353 28.865C17.4002 27.5141 17.799 25.447 17.8315 22.6638V14.2166ZM36.8501 15.1931H40.6099C42.4002 15.1931 43.7267 14.7455 44.5894 13.8503C45.452 12.9552 45.8833 11.767 45.8833 10.2859C45.8833 8.8536 45.452 7.73869 44.5894 6.94116C43.743 6.14364 42.5711 5.74487 41.0737 5.74487C39.7228 5.74487 38.5916 6.11922 37.6802 6.86792C36.7687 7.60034 36.313 8.56063 36.313 9.74878H29.2573C29.2573 7.89331 29.7537 6.23315 30.7466 4.76831C31.7557 3.28719 33.1554 2.13159 34.9458 1.30151C36.7524 0.471436 38.7381 0.0563965 40.9028 0.0563965C44.6626 0.0563965 47.6086 0.959717 49.7407 2.76636C51.8729 4.55672 52.939 7.03068 52.939 10.1882C52.939 11.8158 52.4425 13.3132 51.4497 14.6804C50.4569 16.0476 49.1548 17.0974 47.5435 17.8298C49.5454 18.546 51.0347 19.6202 52.0112 21.0525C53.0041 22.4848 53.5005 24.1775 53.5005 26.1306C53.5005 29.2882 52.3449 31.8191 50.0337 33.7234C47.7388 35.6277 44.6951 36.5798 40.9028 36.5798C37.3547 36.5798 34.4494 35.644 32.187 33.7722C29.9409 31.9005 28.8179 29.4265 28.8179 26.3503H35.8735C35.8735 27.685 36.37 28.7755 37.3628 29.6218C38.3719 30.4682 39.6089 30.8914 41.0737 30.8914C42.7502 30.8914 44.0604 30.4519 45.0044 29.573C45.9647 28.6778 46.4448 27.4978 46.4448 26.033C46.4448 22.4848 44.4917 20.7107 40.5854 20.7107H36.8501V15.1931Z" fill="#A07B50"/>
</svg>
