<svg width="55" height="38" viewBox="0 0 55 38" fill="none" xmlns="http://www.w3.org/2000/svg">
<path d="M24.8872 22.2976C24.8872 27.213 23.87 30.9727 21.8354 33.5769C19.8009 36.1811 16.8224 37.4832 12.8999 37.4832C9.0262 37.4832 6.06396 36.2055 4.01318 33.6501C1.9624 31.0948 0.912598 27.4327 0.86377 22.6638V16.1208C0.86377 11.1567 1.88916 7.38875 3.93994 4.81714C6.007 2.24552 8.97738 0.959717 12.8511 0.959717C16.7248 0.959717 19.687 2.23739 21.7378 4.79272C23.7886 7.33179 24.8384 10.9858 24.8872 15.7546V22.2976ZM17.8315 15.1199C17.8315 12.1739 17.4246 10.0336 16.6108 8.69897C15.8133 7.34806 14.5601 6.67261 12.8511 6.67261C11.1909 6.67261 9.96208 7.31551 9.16455 8.60132C8.3833 9.87085 7.96826 11.8647 7.91943 14.5828V23.2253C7.91943 26.1225 8.31006 28.2791 9.09131 29.6951C9.88883 31.0948 11.1584 31.7947 12.8999 31.7947C14.6252 31.7947 15.8703 31.1192 16.6353 29.7683C17.4002 28.4174 17.799 26.3503 17.8315 23.5671V15.1199ZM50.5464 23.616H54.5747V29.3044H50.5464V36.9949H43.4907V29.3044H28.9155L28.5981 24.8611L43.4175 1.448H50.5464V23.616ZM35.6294 23.616H43.4907V11.0671L43.0269 11.8728L35.6294 23.616Z" fill="#A07B50"/>
</svg>
