<svg width="28" height="29" viewBox="0 0 28 29" xmlns="http://www.w3.org/2000/svg">
  <path d="M22.8396 17.9206C22.7912 17.8417 22.4919 17.2085 21.0518 15.9071C19.5442 14.5444 19.7467 14.7657 21.5626 12.4093C22.6685 10.9742 23.1107 10.0979 22.9723 9.72323C22.8407 9.3661 22.0273 9.46031 22.0273 9.46031L19.3226 9.47565C19.3226 9.47565 19.1223 9.44936 18.9727 9.5359C18.8275 9.62135 18.7341 9.81853 18.7341 9.81853C18.7341 9.81853 18.3055 10.9293 17.7339 11.8736C16.529 13.8663 16.0463 13.9714 15.8494 13.8477C15.3915 13.5595 15.5063 12.6886 15.5063 12.0708C15.5063 10.1395 15.8067 9.33433 14.9201 9.1262C14.6253 9.05718 14.4093 9.01117 13.6566 9.0035C12.6913 8.99365 11.8734 9.00679 11.411 9.22698C11.1027 9.37377 10.8653 9.70132 11.0104 9.71994C11.1893 9.74294 11.5944 9.8262 11.8093 10.111C12.0871 10.478 12.077 11.304 12.077 11.304C12.077 11.304 12.2368 13.5771 11.7046 13.8597C11.339 14.0536 10.8383 13.6581 9.76385 11.8495C9.21369 10.9239 8.7974 9.8996 8.7974 9.8996C8.7974 9.8996 8.71752 9.70898 8.57464 9.60711C8.40138 9.48332 8.15836 9.44388 8.15836 9.44388L5.58642 9.45922C5.58642 9.45922 5.20052 9.47017 5.05876 9.6334C4.93275 9.77909 5.04863 10.0793 5.04863 10.0793C5.04863 10.0793 7.06253 14.666 9.34194 16.9785C11.4335 19.0982 13.8074 18.9591 13.8074 18.9591H14.883C14.883 18.9591 15.2081 18.924 15.3735 18.7499C15.5265 18.5899 15.5209 18.2898 15.5209 18.2898C15.5209 18.2898 15.4995 16.8843 16.1701 16.6772C16.8305 16.4735 17.6788 18.0356 18.5777 18.637C19.2573 19.0916 19.7737 18.992 19.7737 18.992L22.178 18.9591C22.178 18.9591 23.4359 18.8835 22.8396 17.9206Z"/>
</svg>
