<svg width="28" height="29" viewBox="0 0 28 29" fill="none" xmlns="http://www.w3.org/2000/svg">
<path d="M20.1872 13.3362C21.0858 13.2555 21.6953 12.8108 21.9299 12.2073C21.6058 12.4241 20.5995 12.6604 20.0438 12.4353C20.0166 12.2932 19.9861 12.1582 19.9563 12.0363C19.5328 10.3435 18.083 8.97975 16.5639 9.1445C16.6868 9.09047 16.8115 9.04017 16.9358 8.99502C17.103 8.92981 18.084 8.75603 17.9296 8.37903C17.7994 8.04743 16.6007 8.62964 16.375 8.70573C16.673 8.58375 17.1657 8.37393 17.2185 8.00122C16.762 8.06938 16.314 8.30431 15.9677 8.64592C16.0927 8.49943 16.1876 8.32092 16.2077 8.12879C14.9903 8.9755 14.2792 10.6825 13.7037 12.3384C13.2518 11.8616 12.8512 11.4861 12.4919 11.2776C11.4839 10.6892 10.2787 10.0752 8.38681 9.31054C8.32874 9.99201 8.69638 10.8981 9.75574 11.5007C9.52622 11.4673 9.1065 11.5419 8.77082 11.6294C8.90753 12.4101 9.35399 13.0533 10.5627 13.3643C10.0103 13.404 9.72483 13.5409 9.46611 13.8358C9.71769 14.3788 10.3316 15.0178 11.4359 14.8866C10.2081 15.4628 10.9353 16.5297 11.9343 16.3706C10.23 18.2871 7.54298 18.1462 6 16.5433C10.0286 22.5197 18.786 20.0777 20.091 14.3213C21.0688 14.3303 21.6436 13.9525 22 13.536C21.4367 13.6401 20.6201 13.5325 20.1872 13.3362Z" fill="#A07B50"/>
<rect x="0.25" y="0.251221" width="27.5" height="27.5" stroke="#A07B50" stroke-opacity="0.27" stroke-width="0.5"/>
</svg>
