<svg xmlns="http://www.w3.org/2000/svg" xmlns:xlink="http://www.w3.org/1999/xlink"><symbol id="01-icon" viewBox="0 0 47 38">
<path d="M24.3428 22.3027C24.3428 27.2181 23.3255 30.9779 21.291 33.582C19.2565 36.1862 16.278 37.4883 12.3555 37.4883C8.48177 37.4883 5.51953 36.2106 3.46875 33.6553C1.41797 31.0999 0.368164 27.4378 0.319336 22.6689V16.126C0.319336 11.1618 1.34473 7.39388 3.39551 4.82227C5.46257 2.25065 8.43294 0.964844 12.3066 0.964844C16.1803 0.964844 19.1426 2.24251 21.1934 4.79785C23.2441 7.33691 24.2939 10.9909 24.3428 15.7598V22.3027ZM17.2871 15.125C17.2871 12.179 16.8802 10.0387 16.0664 8.7041C15.2689 7.35319 14.0156 6.67773 12.3066 6.67773C10.6465 6.67773 9.41764 7.32064 8.62012 8.60645C7.83887 9.87598 7.42383 11.8698 7.375 14.5879V23.2305C7.375 26.1276 7.76562 28.2842 8.54688 29.7002C9.3444 31.0999 10.6139 31.7998 12.3555 31.7998C14.0807 31.7998 15.3258 31.1243 16.0908 29.7734C16.8558 28.4225 17.2546 26.3555 17.2871 23.5723V15.125ZM46.2666 37H39.2109V9.80273L30.7881 12.415V6.67773L45.5098 1.4043H46.2666V37Z" fill="#A07B50"/>
</symbol><symbol id="02-icon" viewBox="0 0 54 38">
<path d="M24.3428 22.3027C24.3428 27.2181 23.3255 30.9779 21.291 33.582C19.2565 36.1862 16.278 37.4883 12.3555 37.4883C8.48177 37.4883 5.51953 36.2106 3.46875 33.6553C1.41797 31.0999 0.368164 27.4378 0.319336 22.6689V16.126C0.319336 11.1618 1.34473 7.39388 3.39551 4.82227C5.46257 2.25065 8.43294 0.964844 12.3066 0.964844C16.1803 0.964844 19.1426 2.24251 21.1934 4.79785C23.2441 7.33691 24.2939 10.9909 24.3428 15.7598V22.3027ZM17.2871 15.125C17.2871 12.179 16.8802 10.0387 16.0664 8.7041C15.2689 7.35319 14.0156 6.67773 12.3066 6.67773C10.6465 6.67773 9.41764 7.32064 8.62012 8.60645C7.83887 9.87598 7.42383 11.8698 7.375 14.5879V23.2305C7.375 26.1276 7.76562 28.2842 8.54688 29.7002C9.3444 31.0999 10.6139 31.7998 12.3555 31.7998C14.0807 31.7998 15.3258 31.1243 16.0908 29.7734C16.8558 28.4225 17.2546 26.3555 17.2871 23.5723V15.125ZM53.4932 37H29.1279V32.166L40.627 19.9102C42.2057 18.1849 43.3695 16.6794 44.1182 15.3936C44.8831 14.1077 45.2656 12.887 45.2656 11.7314C45.2656 10.1527 44.8669 8.91569 44.0693 8.02051C43.2718 7.10905 42.1325 6.65332 40.6514 6.65332C39.0563 6.65332 37.7949 7.20671 36.8672 8.31348C35.9557 9.40397 35.5 10.8444 35.5 12.6348H28.4199C28.4199 10.4701 28.9326 8.49251 29.958 6.70215C30.9997 4.91178 32.4645 3.51204 34.3525 2.50293C36.2406 1.47754 38.3809 0.964844 40.7734 0.964844C44.4355 0.964844 47.2757 1.84375 49.2939 3.60156C51.3285 5.35938 52.3457 7.84147 52.3457 11.0479C52.3457 12.8057 51.89 14.596 50.9785 16.4189C50.0671 18.2419 48.5046 20.3659 46.291 22.791L38.21 31.3115H53.4932V37Z" fill="#A07B50"/>
</symbol><symbol id="03-icon" viewBox="0 0 54 37">
<path d="M24.8872 21.3943C24.8872 26.3097 23.87 30.0694 21.8354 32.6736C19.8009 35.2778 16.8224 36.5798 12.8999 36.5798C9.0262 36.5798 6.06396 35.3022 4.01318 32.7468C1.9624 30.1915 0.912598 26.5294 0.86377 21.7605V15.2175C0.86377 10.2533 1.88916 6.48543 3.93994 3.91382C6.007 1.3422 8.97738 0.0563965 12.8511 0.0563965C16.7248 0.0563965 19.687 1.33407 21.7378 3.8894C23.7886 6.42847 24.8384 10.0824 24.8872 14.8513V21.3943ZM17.8315 14.2166C17.8315 11.2706 17.4246 9.13029 16.6108 7.79565C15.8133 6.44474 14.5601 5.76929 12.8511 5.76929C11.1909 5.76929 9.96208 6.41219 9.16455 7.698C8.3833 8.96753 7.96826 10.9613 7.91943 13.6794V22.322C7.91943 25.2192 8.31006 27.3757 9.09131 28.7917C9.88883 30.1915 11.1584 30.8914 12.8999 30.8914C14.6252 30.8914 15.8703 30.2159 16.6353 28.865C17.4002 27.5141 17.799 25.447 17.8315 22.6638V14.2166ZM36.8501 15.1931H40.6099C42.4002 15.1931 43.7267 14.7455 44.5894 13.8503C45.452 12.9552 45.8833 11.767 45.8833 10.2859C45.8833 8.8536 45.452 7.73869 44.5894 6.94116C43.743 6.14364 42.5711 5.74487 41.0737 5.74487C39.7228 5.74487 38.5916 6.11922 37.6802 6.86792C36.7687 7.60034 36.313 8.56063 36.313 9.74878H29.2573C29.2573 7.89331 29.7537 6.23315 30.7466 4.76831C31.7557 3.28719 33.1554 2.13159 34.9458 1.30151C36.7524 0.471436 38.7381 0.0563965 40.9028 0.0563965C44.6626 0.0563965 47.6086 0.959717 49.7407 2.76636C51.8729 4.55672 52.939 7.03068 52.939 10.1882C52.939 11.8158 52.4425 13.3132 51.4497 14.6804C50.4569 16.0476 49.1548 17.0974 47.5435 17.8298C49.5454 18.546 51.0347 19.6202 52.0112 21.0525C53.0041 22.4848 53.5005 24.1775 53.5005 26.1306C53.5005 29.2882 52.3449 31.8191 50.0337 33.7234C47.7388 35.6277 44.6951 36.5798 40.9028 36.5798C37.3547 36.5798 34.4494 35.644 32.187 33.7722C29.9409 31.9005 28.8179 29.4265 28.8179 26.3503H35.8735C35.8735 27.685 36.37 28.7755 37.3628 29.6218C38.3719 30.4682 39.6089 30.8914 41.0737 30.8914C42.7502 30.8914 44.0604 30.4519 45.0044 29.573C45.9647 28.6778 46.4448 27.4978 46.4448 26.033C46.4448 22.4848 44.4917 20.7107 40.5854 20.7107H36.8501V15.1931Z" fill="#A07B50"/>
</symbol><symbol id="04-icon" viewBox="0 0 55 38">
<path d="M24.8872 22.2976C24.8872 27.213 23.87 30.9727 21.8354 33.5769C19.8009 36.1811 16.8224 37.4832 12.8999 37.4832C9.0262 37.4832 6.06396 36.2055 4.01318 33.6501C1.9624 31.0948 0.912598 27.4327 0.86377 22.6638V16.1208C0.86377 11.1567 1.88916 7.38875 3.93994 4.81714C6.007 2.24552 8.97738 0.959717 12.8511 0.959717C16.7248 0.959717 19.687 2.23739 21.7378 4.79272C23.7886 7.33179 24.8384 10.9858 24.8872 15.7546V22.2976ZM17.8315 15.1199C17.8315 12.1739 17.4246 10.0336 16.6108 8.69897C15.8133 7.34806 14.5601 6.67261 12.8511 6.67261C11.1909 6.67261 9.96208 7.31551 9.16455 8.60132C8.3833 9.87085 7.96826 11.8647 7.91943 14.5828V23.2253C7.91943 26.1225 8.31006 28.2791 9.09131 29.6951C9.88883 31.0948 11.1584 31.7947 12.8999 31.7947C14.6252 31.7947 15.8703 31.1192 16.6353 29.7683C17.4002 28.4174 17.799 26.3503 17.8315 23.5671V15.1199ZM50.5464 23.616H54.5747V29.3044H50.5464V36.9949H43.4907V29.3044H28.9155L28.5981 24.8611L43.4175 1.448H50.5464V23.616ZM35.6294 23.616H43.4907V11.0671L43.0269 11.8728L35.6294 23.616Z" fill="#A07B50"/>
</symbol><symbol id="24-hours-icon" viewBox="0 0 80 71">
<mask id="path-1-inside-1" fill="white">
<path d="M32.4111 31.2086C27.1142 31.2086 22.8049 35.5138 22.8049 40.8054C22.8049 45.642 26.396 48.5296 32.4111 48.5296C38.4263 48.5296 42.0174 45.642 42.0174 40.8054C42.0174 35.5138 37.708 31.2086 32.4111 31.2086ZM32.4111 46.1888C29.6986 46.1888 25.1478 45.4894 25.1478 40.8052C25.1478 36.804 28.4061 33.5491 32.4111 33.5491C36.416 33.5491 39.6744 36.804 39.6744 40.8052C39.6744 45.4894 35.1236 46.1888 32.4111 46.1888Z"/>
<path d="M27.7252 21.846C25.3306 21.846 23.742 24.8046 23.742 26.7615C23.742 28.9555 25.5287 30.7407 27.7252 30.7407C29.9216 30.7407 31.7083 28.9557 31.7083 26.7615C31.7083 24.8045 30.1197 21.846 27.7252 21.846ZM27.7252 28.3998C26.8208 28.3998 26.085 27.6649 26.085 26.7613C26.085 25.6543 27.02 24.1865 27.7252 24.1865C28.4303 24.1865 29.3653 25.6543 29.3653 26.7613C29.3653 27.6648 28.6295 28.3998 27.7252 28.3998Z"/>
<path d="M37.097 21.846C34.7025 21.846 33.1139 24.8046 33.1139 26.7615C33.1139 28.9555 34.9006 30.7407 37.097 30.7407C39.2934 30.7407 41.0801 28.9557 41.0801 26.7615C41.0801 24.8045 39.4916 21.846 37.097 21.846ZM37.097 28.3998C36.1927 28.3998 35.4569 27.6649 35.4569 26.7613C35.4569 25.6543 36.3919 24.1865 37.097 24.1865C37.8022 24.1865 38.7372 25.6543 38.7372 26.7613C38.7372 27.6648 38.0014 28.3998 37.097 28.3998Z"/>
<path d="M44.5945 27.4636C42.1999 27.4636 40.6113 30.4222 40.6113 32.379C40.6113 34.5731 42.3981 36.3582 44.5945 36.3582C46.7909 36.3582 48.5776 34.5733 48.5776 32.379C48.5776 30.4221 46.989 27.4636 44.5945 27.4636ZM44.5945 34.0174C43.6901 34.0174 42.9543 33.2825 42.9543 32.3789C42.9543 31.2719 43.8893 29.8041 44.5945 29.8041C45.2996 29.8041 46.2346 31.2719 46.2346 32.3789C46.2346 33.2824 45.4988 34.0174 44.5945 34.0174Z"/>
<path d="M20.2276 27.4636C17.833 27.4636 16.2444 30.4222 16.2444 32.379C16.2444 34.5731 18.0312 36.3582 20.2276 36.3582C22.424 36.3582 24.2107 34.5733 24.2107 32.379C24.2107 30.4221 22.6221 27.4636 20.2276 27.4636ZM20.2276 34.0174C19.3232 34.0174 18.5874 33.2825 18.5874 32.3789C18.5874 31.2719 19.5224 29.8041 20.2276 29.8041C20.9327 29.8041 21.8677 31.2719 21.8677 32.3789C21.8677 33.2824 21.1319 34.0174 20.2276 34.0174Z"/>
<path d="M34.9103 38.6987H33.5826V37.3724C33.5826 36.7258 33.0581 36.2021 32.4112 36.2021C31.7644 36.2021 31.2398 36.726 31.2398 37.3724V38.6987H29.9122C29.2651 38.6987 28.7408 39.2226 28.7408 39.869C28.7408 40.5155 29.2653 41.0392 29.9122 41.0392H31.2398V42.3656C31.2398 43.0121 31.7644 43.5358 32.4112 43.5358C33.0581 43.5358 33.5826 43.012 33.5826 42.3656V41.0392H34.9103C35.5573 41.0392 36.0817 40.5154 36.0817 39.869C36.0817 39.2226 35.5572 38.6987 34.9103 38.6987Z"/>
<path d="M46.5023 1.71487C42.9775 0.576774 39.2875 0 35.535 0C26.0431 0 17.1195 3.6926 10.4078 10.3977C3.69625 17.1028 0 26.0176 0 35.4999C0 44.9823 3.69625 53.8971 10.408 60.6023C17.1197 67.3074 26.0433 71 35.5351 71C36.1822 71 36.7066 70.4761 36.7066 69.8298C36.7066 69.1832 36.182 68.6595 35.5351 68.6595C26.6692 68.6595 18.3339 65.2103 12.0648 58.9474C5.79562 52.684 2.34297 44.3571 2.34297 35.4999C2.34297 26.6427 5.79562 18.3158 12.0647 12.0528C18.3339 5.78959 26.6691 2.34066 35.535 2.34066C39.0426 2.34066 42.49 2.8795 45.7819 3.94235C46.3894 4.13919 47.0605 3.79531 47.2569 3.18872C47.4533 2.58167 47.1098 1.91092 46.5023 1.71487Z"/>
<path d="M79.7101 32.0845L75.5959 27.3869C75.1757 26.9073 74.4232 26.8568 73.9429 27.2767L70.6662 30.1411C69.5357 22.7042 66.0329 15.7628 60.6621 10.3973C58.1024 7.84017 55.2004 5.70134 52.0362 4.04048C51.471 3.74328 50.7512 3.96743 50.4542 4.53187C50.1573 5.09647 50.381 5.8156 50.9462 6.11234C53.9012 7.66378 56.6126 9.66227 59.0052 12.0526C64.6024 17.6442 67.9199 24.7439 68.5988 32.5838C68.6799 33.5192 69.8285 33.9834 70.5374 33.3637L74.6038 29.8089L77.1752 32.7448L68.0601 40.7127C67.3334 41.348 66.2156 41.348 65.4887 40.7127L56.3735 32.7448L58.9449 29.8089L62.6835 33.0769C63.4738 33.7677 64.741 33.0999 64.6185 32.0594C62.8846 17.3409 50.3813 6.24159 35.5351 6.24159C19.386 6.24159 6.24792 19.3667 6.24792 35.4999C6.24792 51.633 19.386 64.7581 35.5351 64.7581C36.1821 64.7581 36.7065 64.2343 36.7065 63.5877C36.7065 62.9412 36.182 62.4175 35.5351 62.4175C20.6781 62.4175 8.59089 50.3424 8.59089 35.4999C8.59089 20.6573 20.6779 8.58224 35.5349 8.58224C48.0896 8.58224 58.8235 17.2101 61.7151 29.1202L59.6063 27.2769C59.126 26.8572 58.3732 26.9077 57.9534 27.3871L53.8392 32.0846C53.4131 32.571 53.4624 33.3103 53.9495 33.736L63.9462 42.4744C65.5451 43.8721 68.0043 43.8721 69.6034 42.4744L79.6001 33.736C80.0868 33.3103 80.1362 32.571 79.7101 32.0845Z"/>
<path d="M54.9035 66.7866H46.2078C50.0812 63.9072 56.0751 58.5511 56.0751 52.9767C56.0751 48.8898 52.7467 45.5646 48.6557 45.5646C44.5648 45.5646 41.2363 48.8898 41.2363 52.9767C41.2363 53.6232 41.7609 54.1469 42.4078 54.1469C43.0546 54.1469 43.5792 53.623 43.5792 52.9767C43.5792 50.1802 45.8565 47.9053 48.6556 47.9053C51.4546 47.9053 53.732 50.1802 53.732 52.9767C53.732 59.7156 41.9239 66.8818 41.8048 66.9531C41.3448 67.2288 41.1287 67.8003 41.291 68.311C41.4437 68.7915 41.9032 69.1271 42.4076 69.1271H54.9034C55.5504 69.1271 56.0748 68.6032 56.0748 67.9568C56.0751 67.3104 55.5506 66.7866 54.9035 66.7866Z"/>
<path d="M73.6474 61.7933H71.0701V46.7351C71.0701 46.2554 70.7657 45.8133 70.3174 45.6419C69.8393 45.4591 69.2823 45.6159 68.9701 46.0212L56.4743 62.2497C55.8927 63.0051 56.4509 64.1337 57.4029 64.1337H68.7273V67.9567C68.7273 68.6033 69.2518 69.127 69.8987 69.127C70.5455 69.127 71.0701 68.6031 71.0701 67.9567V64.1337H73.6474C74.2945 64.1337 74.8188 63.6098 74.8188 62.9634C74.8188 62.317 74.2943 61.7933 73.6474 61.7933ZM68.7271 61.7933H59.7818L68.7271 50.176V61.7933Z"/>
</mask>
<path d="M32.4111 31.2086C27.1142 31.2086 22.8049 35.5138 22.8049 40.8054C22.8049 45.642 26.396 48.5296 32.4111 48.5296C38.4263 48.5296 42.0174 45.642 42.0174 40.8054C42.0174 35.5138 37.708 31.2086 32.4111 31.2086ZM32.4111 46.1888C29.6986 46.1888 25.1478 45.4894 25.1478 40.8052C25.1478 36.804 28.4061 33.5491 32.4111 33.5491C36.416 33.5491 39.6744 36.804 39.6744 40.8052C39.6744 45.4894 35.1236 46.1888 32.4111 46.1888Z" fill="#A07B50"/>
<path d="M27.7252 21.846C25.3306 21.846 23.742 24.8046 23.742 26.7615C23.742 28.9555 25.5287 30.7407 27.7252 30.7407C29.9216 30.7407 31.7083 28.9557 31.7083 26.7615C31.7083 24.8045 30.1197 21.846 27.7252 21.846ZM27.7252 28.3998C26.8208 28.3998 26.085 27.6649 26.085 26.7613C26.085 25.6543 27.02 24.1865 27.7252 24.1865C28.4303 24.1865 29.3653 25.6543 29.3653 26.7613C29.3653 27.6648 28.6295 28.3998 27.7252 28.3998Z" fill="#A07B50"/>
<path d="M37.097 21.846C34.7025 21.846 33.1139 24.8046 33.1139 26.7615C33.1139 28.9555 34.9006 30.7407 37.097 30.7407C39.2934 30.7407 41.0801 28.9557 41.0801 26.7615C41.0801 24.8045 39.4916 21.846 37.097 21.846ZM37.097 28.3998C36.1927 28.3998 35.4569 27.6649 35.4569 26.7613C35.4569 25.6543 36.3919 24.1865 37.097 24.1865C37.8022 24.1865 38.7372 25.6543 38.7372 26.7613C38.7372 27.6648 38.0014 28.3998 37.097 28.3998Z" fill="#A07B50"/>
<path d="M44.5945 27.4636C42.1999 27.4636 40.6113 30.4222 40.6113 32.379C40.6113 34.5731 42.3981 36.3582 44.5945 36.3582C46.7909 36.3582 48.5776 34.5733 48.5776 32.379C48.5776 30.4221 46.989 27.4636 44.5945 27.4636ZM44.5945 34.0174C43.6901 34.0174 42.9543 33.2825 42.9543 32.3789C42.9543 31.2719 43.8893 29.8041 44.5945 29.8041C45.2996 29.8041 46.2346 31.2719 46.2346 32.3789C46.2346 33.2824 45.4988 34.0174 44.5945 34.0174Z" fill="#A07B50"/>
<path d="M20.2276 27.4636C17.833 27.4636 16.2444 30.4222 16.2444 32.379C16.2444 34.5731 18.0312 36.3582 20.2276 36.3582C22.424 36.3582 24.2107 34.5733 24.2107 32.379C24.2107 30.4221 22.6221 27.4636 20.2276 27.4636ZM20.2276 34.0174C19.3232 34.0174 18.5874 33.2825 18.5874 32.3789C18.5874 31.2719 19.5224 29.8041 20.2276 29.8041C20.9327 29.8041 21.8677 31.2719 21.8677 32.3789C21.8677 33.2824 21.1319 34.0174 20.2276 34.0174Z" fill="#A07B50"/>
<path d="M34.9103 38.6987H33.5826V37.3724C33.5826 36.7258 33.0581 36.2021 32.4112 36.2021C31.7644 36.2021 31.2398 36.726 31.2398 37.3724V38.6987H29.9122C29.2651 38.6987 28.7408 39.2226 28.7408 39.869C28.7408 40.5155 29.2653 41.0392 29.9122 41.0392H31.2398V42.3656C31.2398 43.0121 31.7644 43.5358 32.4112 43.5358C33.0581 43.5358 33.5826 43.012 33.5826 42.3656V41.0392H34.9103C35.5573 41.0392 36.0817 40.5154 36.0817 39.869C36.0817 39.2226 35.5572 38.6987 34.9103 38.6987Z" fill="#A07B50"/>
<path d="M46.5023 1.71487C42.9775 0.576774 39.2875 0 35.535 0C26.0431 0 17.1195 3.6926 10.4078 10.3977C3.69625 17.1028 0 26.0176 0 35.4999C0 44.9823 3.69625 53.8971 10.408 60.6023C17.1197 67.3074 26.0433 71 35.5351 71C36.1822 71 36.7066 70.4761 36.7066 69.8298C36.7066 69.1832 36.182 68.6595 35.5351 68.6595C26.6692 68.6595 18.3339 65.2103 12.0648 58.9474C5.79562 52.684 2.34297 44.3571 2.34297 35.4999C2.34297 26.6427 5.79562 18.3158 12.0647 12.0528C18.3339 5.78959 26.6691 2.34066 35.535 2.34066C39.0426 2.34066 42.49 2.8795 45.7819 3.94235C46.3894 4.13919 47.0605 3.79531 47.2569 3.18872C47.4533 2.58167 47.1098 1.91092 46.5023 1.71487Z" fill="#A07B50"/>
<path d="M79.7101 32.0845L75.5959 27.3869C75.1757 26.9073 74.4232 26.8568 73.9429 27.2767L70.6662 30.1411C69.5357 22.7042 66.0329 15.7628 60.6621 10.3973C58.1024 7.84017 55.2004 5.70134 52.0362 4.04048C51.471 3.74328 50.7512 3.96743 50.4542 4.53187C50.1573 5.09647 50.381 5.8156 50.9462 6.11234C53.9012 7.66378 56.6126 9.66227 59.0052 12.0526C64.6024 17.6442 67.9199 24.7439 68.5988 32.5838C68.6799 33.5192 69.8285 33.9834 70.5374 33.3637L74.6038 29.8089L77.1752 32.7448L68.0601 40.7127C67.3334 41.348 66.2156 41.348 65.4887 40.7127L56.3735 32.7448L58.9449 29.8089L62.6835 33.0769C63.4738 33.7677 64.741 33.0999 64.6185 32.0594C62.8846 17.3409 50.3813 6.24159 35.5351 6.24159C19.386 6.24159 6.24792 19.3667 6.24792 35.4999C6.24792 51.633 19.386 64.7581 35.5351 64.7581C36.1821 64.7581 36.7065 64.2343 36.7065 63.5877C36.7065 62.9412 36.182 62.4175 35.5351 62.4175C20.6781 62.4175 8.59089 50.3424 8.59089 35.4999C8.59089 20.6573 20.6779 8.58224 35.5349 8.58224C48.0896 8.58224 58.8235 17.2101 61.7151 29.1202L59.6063 27.2769C59.126 26.8572 58.3732 26.9077 57.9534 27.3871L53.8392 32.0846C53.4131 32.571 53.4624 33.3103 53.9495 33.736L63.9462 42.4744C65.5451 43.8721 68.0043 43.8721 69.6034 42.4744L79.6001 33.736C80.0868 33.3103 80.1362 32.571 79.7101 32.0845Z" fill="#A07B50"/>
<path d="M54.9035 66.7866H46.2078C50.0812 63.9072 56.0751 58.5511 56.0751 52.9767C56.0751 48.8898 52.7467 45.5646 48.6557 45.5646C44.5648 45.5646 41.2363 48.8898 41.2363 52.9767C41.2363 53.6232 41.7609 54.1469 42.4078 54.1469C43.0546 54.1469 43.5792 53.623 43.5792 52.9767C43.5792 50.1802 45.8565 47.9053 48.6556 47.9053C51.4546 47.9053 53.732 50.1802 53.732 52.9767C53.732 59.7156 41.9239 66.8818 41.8048 66.9531C41.3448 67.2288 41.1287 67.8003 41.291 68.311C41.4437 68.7915 41.9032 69.1271 42.4076 69.1271H54.9034C55.5504 69.1271 56.0748 68.6032 56.0748 67.9568C56.0751 67.3104 55.5506 66.7866 54.9035 66.7866Z" fill="#A07B50"/>
<path d="M73.6474 61.7933H71.0701V46.7351C71.0701 46.2554 70.7657 45.8133 70.3174 45.6419C69.8393 45.4591 69.2823 45.6159 68.9701 46.0212L56.4743 62.2497C55.8927 63.0051 56.4509 64.1337 57.4029 64.1337H68.7273V67.9567C68.7273 68.6033 69.2518 69.127 69.8987 69.127C70.5455 69.127 71.0701 68.6031 71.0701 67.9567V64.1337H73.6474C74.2945 64.1337 74.8188 63.6098 74.8188 62.9634C74.8188 62.317 74.2943 61.7933 73.6474 61.7933ZM68.7271 61.7933H59.7818L68.7271 50.176V61.7933Z" fill="#A07B50"/>
<path d="M32.4111 31.2086C27.1142 31.2086 22.8049 35.5138 22.8049 40.8054C22.8049 45.642 26.396 48.5296 32.4111 48.5296C38.4263 48.5296 42.0174 45.642 42.0174 40.8054C42.0174 35.5138 37.708 31.2086 32.4111 31.2086ZM32.4111 46.1888C29.6986 46.1888 25.1478 45.4894 25.1478 40.8052C25.1478 36.804 28.4061 33.5491 32.4111 33.5491C36.416 33.5491 39.6744 36.804 39.6744 40.8052C39.6744 45.4894 35.1236 46.1888 32.4111 46.1888Z" stroke="#1F1C1D" mask="url(#path-1-inside-1)"/>
<path d="M27.7252 21.846C25.3306 21.846 23.742 24.8046 23.742 26.7615C23.742 28.9555 25.5287 30.7407 27.7252 30.7407C29.9216 30.7407 31.7083 28.9557 31.7083 26.7615C31.7083 24.8045 30.1197 21.846 27.7252 21.846ZM27.7252 28.3998C26.8208 28.3998 26.085 27.6649 26.085 26.7613C26.085 25.6543 27.02 24.1865 27.7252 24.1865C28.4303 24.1865 29.3653 25.6543 29.3653 26.7613C29.3653 27.6648 28.6295 28.3998 27.7252 28.3998Z" stroke="#1F1C1D" mask="url(#path-1-inside-1)"/>
<path d="M37.097 21.846C34.7025 21.846 33.1139 24.8046 33.1139 26.7615C33.1139 28.9555 34.9006 30.7407 37.097 30.7407C39.2934 30.7407 41.0801 28.9557 41.0801 26.7615C41.0801 24.8045 39.4916 21.846 37.097 21.846ZM37.097 28.3998C36.1927 28.3998 35.4569 27.6649 35.4569 26.7613C35.4569 25.6543 36.3919 24.1865 37.097 24.1865C37.8022 24.1865 38.7372 25.6543 38.7372 26.7613C38.7372 27.6648 38.0014 28.3998 37.097 28.3998Z" stroke="#1F1C1D" mask="url(#path-1-inside-1)"/>
<path d="M44.5945 27.4636C42.1999 27.4636 40.6113 30.4222 40.6113 32.379C40.6113 34.5731 42.3981 36.3582 44.5945 36.3582C46.7909 36.3582 48.5776 34.5733 48.5776 32.379C48.5776 30.4221 46.989 27.4636 44.5945 27.4636ZM44.5945 34.0174C43.6901 34.0174 42.9543 33.2825 42.9543 32.3789C42.9543 31.2719 43.8893 29.8041 44.5945 29.8041C45.2996 29.8041 46.2346 31.2719 46.2346 32.3789C46.2346 33.2824 45.4988 34.0174 44.5945 34.0174Z" stroke="#1F1C1D" mask="url(#path-1-inside-1)"/>
<path d="M20.2276 27.4636C17.833 27.4636 16.2444 30.4222 16.2444 32.379C16.2444 34.5731 18.0312 36.3582 20.2276 36.3582C22.424 36.3582 24.2107 34.5733 24.2107 32.379C24.2107 30.4221 22.6221 27.4636 20.2276 27.4636ZM20.2276 34.0174C19.3232 34.0174 18.5874 33.2825 18.5874 32.3789C18.5874 31.2719 19.5224 29.8041 20.2276 29.8041C20.9327 29.8041 21.8677 31.2719 21.8677 32.3789C21.8677 33.2824 21.1319 34.0174 20.2276 34.0174Z" stroke="#1F1C1D" mask="url(#path-1-inside-1)"/>
<path d="M34.9103 38.6987H33.5826V37.3724C33.5826 36.7258 33.0581 36.2021 32.4112 36.2021C31.7644 36.2021 31.2398 36.726 31.2398 37.3724V38.6987H29.9122C29.2651 38.6987 28.7408 39.2226 28.7408 39.869C28.7408 40.5155 29.2653 41.0392 29.9122 41.0392H31.2398V42.3656C31.2398 43.0121 31.7644 43.5358 32.4112 43.5358C33.0581 43.5358 33.5826 43.012 33.5826 42.3656V41.0392H34.9103C35.5573 41.0392 36.0817 40.5154 36.0817 39.869C36.0817 39.2226 35.5572 38.6987 34.9103 38.6987Z" stroke="#1F1C1D" mask="url(#path-1-inside-1)"/>
<path d="M46.5023 1.71487C42.9775 0.576774 39.2875 0 35.535 0C26.0431 0 17.1195 3.6926 10.4078 10.3977C3.69625 17.1028 0 26.0176 0 35.4999C0 44.9823 3.69625 53.8971 10.408 60.6023C17.1197 67.3074 26.0433 71 35.5351 71C36.1822 71 36.7066 70.4761 36.7066 69.8298C36.7066 69.1832 36.182 68.6595 35.5351 68.6595C26.6692 68.6595 18.3339 65.2103 12.0648 58.9474C5.79562 52.684 2.34297 44.3571 2.34297 35.4999C2.34297 26.6427 5.79562 18.3158 12.0647 12.0528C18.3339 5.78959 26.6691 2.34066 35.535 2.34066C39.0426 2.34066 42.49 2.8795 45.7819 3.94235C46.3894 4.13919 47.0605 3.79531 47.2569 3.18872C47.4533 2.58167 47.1098 1.91092 46.5023 1.71487Z" stroke="#1F1C1D" mask="url(#path-1-inside-1)"/>
<path d="M79.7101 32.0845L75.5959 27.3869C75.1757 26.9073 74.4232 26.8568 73.9429 27.2767L70.6662 30.1411C69.5357 22.7042 66.0329 15.7628 60.6621 10.3973C58.1024 7.84017 55.2004 5.70134 52.0362 4.04048C51.471 3.74328 50.7512 3.96743 50.4542 4.53187C50.1573 5.09647 50.381 5.8156 50.9462 6.11234C53.9012 7.66378 56.6126 9.66227 59.0052 12.0526C64.6024 17.6442 67.9199 24.7439 68.5988 32.5838C68.6799 33.5192 69.8285 33.9834 70.5374 33.3637L74.6038 29.8089L77.1752 32.7448L68.0601 40.7127C67.3334 41.348 66.2156 41.348 65.4887 40.7127L56.3735 32.7448L58.9449 29.8089L62.6835 33.0769C63.4738 33.7677 64.741 33.0999 64.6185 32.0594C62.8846 17.3409 50.3813 6.24159 35.5351 6.24159C19.386 6.24159 6.24792 19.3667 6.24792 35.4999C6.24792 51.633 19.386 64.7581 35.5351 64.7581C36.1821 64.7581 36.7065 64.2343 36.7065 63.5877C36.7065 62.9412 36.182 62.4175 35.5351 62.4175C20.6781 62.4175 8.59089 50.3424 8.59089 35.4999C8.59089 20.6573 20.6779 8.58224 35.5349 8.58224C48.0896 8.58224 58.8235 17.2101 61.7151 29.1202L59.6063 27.2769C59.126 26.8572 58.3732 26.9077 57.9534 27.3871L53.8392 32.0846C53.4131 32.571 53.4624 33.3103 53.9495 33.736L63.9462 42.4744C65.5451 43.8721 68.0043 43.8721 69.6034 42.4744L79.6001 33.736C80.0868 33.3103 80.1362 32.571 79.7101 32.0845Z" stroke="#1F1C1D" mask="url(#path-1-inside-1)"/>
<path d="M54.9035 66.7866H46.2078C50.0812 63.9072 56.0751 58.5511 56.0751 52.9767C56.0751 48.8898 52.7467 45.5646 48.6557 45.5646C44.5648 45.5646 41.2363 48.8898 41.2363 52.9767C41.2363 53.6232 41.7609 54.1469 42.4078 54.1469C43.0546 54.1469 43.5792 53.623 43.5792 52.9767C43.5792 50.1802 45.8565 47.9053 48.6556 47.9053C51.4546 47.9053 53.732 50.1802 53.732 52.9767C53.732 59.7156 41.9239 66.8818 41.8048 66.9531C41.3448 67.2288 41.1287 67.8003 41.291 68.311C41.4437 68.7915 41.9032 69.1271 42.4076 69.1271H54.9034C55.5504 69.1271 56.0748 68.6032 56.0748 67.9568C56.0751 67.3104 55.5506 66.7866 54.9035 66.7866Z" stroke="#1F1C1D" mask="url(#path-1-inside-1)"/>
<path d="M73.6474 61.7933H71.0701V46.7351C71.0701 46.2554 70.7657 45.8133 70.3174 45.6419C69.8393 45.4591 69.2823 45.6159 68.9701 46.0212L56.4743 62.2497C55.8927 63.0051 56.4509 64.1337 57.4029 64.1337H68.7273V67.9567C68.7273 68.6033 69.2518 69.127 69.8987 69.127C70.5455 69.127 71.0701 68.6031 71.0701 67.9567V64.1337H73.6474C74.2945 64.1337 74.8188 63.6098 74.8188 62.9634C74.8188 62.317 74.2943 61.7933 73.6474 61.7933ZM68.7271 61.7933H59.7818L68.7271 50.176V61.7933Z" stroke="#1F1C1D" mask="url(#path-1-inside-1)"/>
</symbol><symbol id="arrow-left-icon" viewBox="0 0 128 128">
<g>
<line x1="87.5" x2="40.5" y1="111" y2="64"/>
<line x1="40.5" x2="87.5" y1="64" y2="17"/>
</g>
</symbol><symbol id="arrow-left-tablet-icon" viewBox="0 0 60 18">
<path d="M60 9L1 9M1 9L14.4857 17M1 9L14.4857 0.999999" stroke="#A07B50" stroke-opacity="0.5" stroke-width="0.5"/>
</symbol><symbol id="arrow-right-icon" viewBox="0 0 128 128"><g><line style="fill:none;stroke:#2F3435;stroke-width:12;stroke-linecap:square;stroke-miterlimit:10;" x1="40.5" x2="87.5" y1="17" y2="64"/><line style="fill:none;stroke:#2F3435;stroke-width:12;stroke-linecap:square;stroke-miterlimit:10;" x1="87.5" x2="40.5" y1="64" y2="111"/></g></symbol><symbol id="arrow-right-tablet-icon" viewBox="0 0 60 18">
<path d="M0 9L59 9M59 9L45.5143 17M59 9L45.5143 1" stroke="#A07B50" stroke-opacity="0.5" stroke-width="0.5"/>
</symbol><symbol id="burger-menu-icon" viewBox="0 0 35 18">
<path d="M0 1H35" stroke="#E5E5E5" stroke-width="0.5"/>
<path d="M0 9H35" stroke="#E5E5E5" stroke-width="0.5"/>
<path d="M0 17H35" stroke="#E5E5E5" stroke-width="0.5"/>
</symbol><symbol id="curtail-icon" viewBox="0 0 16 2">
<path d="M0 1H16" stroke="white" stroke-width="2"/>
</symbol><symbol id="facebook-icon" viewBox="0 0 5 12">
<path d="M1.08072 2.32402C1.08072 2.62642 1.08072 3.97618 1.08072 3.97618H0V5.99646H1.08072V12H3.30076V5.99662H4.79051C4.79051 5.99662 4.93003 5.02792 4.99766 3.96873C4.80376 3.96873 3.30915 3.96873 3.30915 3.96873C3.30915 3.96873 3.30915 2.7934 3.30915 2.58739C3.30915 2.38093 3.5512 2.10322 3.79044 2.10322C4.02923 2.10322 4.53321 2.10322 5 2.10322C5 1.82816 5 0.877753 5 7.21669e-09C4.37685 7.21669e-09 3.66791 7.21669e-09 3.35541 7.21669e-09C1.02585 -0.000139491 1.08072 2.02214 1.08072 2.32402Z" fill="white"/>
</symbol><symbol id="logo" viewBox="0 0 52 24">
<path d="M44.4467 23H7.38286C7.02281 23 6.70276 22.7749 6.58612 22.4403L1.04553 6.55107C0.89515 6.1179 1.1294 5.64729 1.56947 5.49848C1.70443 5.45346 1.84517 5.44208 1.97579 5.46483C2.28042 5.48237 2.56431 5.66341 2.6959 5.95724C3.38082 7.48659 5.81733 12.4239 8.65968 12.4239C8.69487 12.4239 8.73053 12.423 8.76668 12.4211C10.4812 12.3462 13.1625 10.4007 16.2006 1.56302C16.3167 1.22654 16.6373 1 16.9983 1C17.3598 1 17.6803 1.22654 17.7965 1.56302C18.8337 4.5767 22.3104 12.3751 25.9206 12.3751C25.9302 12.3751 25.9394 12.3746 25.9495 12.3746C27.6611 12.3543 30.2928 10.4657 33.111 1.5815C33.2214 1.23507 33.5468 1 33.9155 1H33.9237C34.2958 1.00379 34.6211 1.24644 34.7243 1.59762C35.5856 4.51414 38.6405 12.1533 42.3876 12.4723C44.5768 12.6495 47.0042 10.2135 49.4007 5.4018C49.5954 5.00892 50.0687 4.83215 50.4799 5.00039C50.8901 5.16768 51.0983 5.61981 50.9547 6.03402L45.2439 22.4403C45.1268 22.7754 44.8068 23 44.4467 23ZM7.9844 21.3436H43.8442L47.1445 11.8623C45.5495 13.522 43.93 14.2623 42.2411 14.1229C38.0911 13.768 35.2434 7.888 33.9194 4.43168C31.5807 10.8505 28.9697 13.9959 25.9688 14.0305C25.9524 14.0305 25.937 14.0315 25.9206 14.0315C21.7267 14.0315 18.4891 7.70981 17.0224 4.22268C14.5198 10.7159 11.8341 13.9443 8.84139 14.076C7.30719 14.1343 5.97109 13.3827 4.82055 12.2675L7.9844 21.3436Z" fill="#A07B50" stroke="#1F1C1D" stroke-width="0.8"/>
</symbol><symbol id="milk-icon" viewBox="0 0 57 88">
<mask id="path-1-inside-1" fill="white">
<path d="M56.89 26.9438L51.5552 14.7947V1.29168C51.5552 0.349464 50.5425 -0.285613 49.7084 0.136511L44.8343 2.60326L39.9603 0.136511C39.6011 -0.0455038 39.1779 -0.0455038 38.8187 0.136511L33.9447 2.60326L29.0708 0.136511C28.7116 -0.0455038 28.2884 -0.0455038 27.9292 0.136511L23.0552 2.60326L18.1811 0.136511C17.8219 -0.0455038 17.3989 -0.0455038 17.0397 0.136511L12.1657 2.60326L7.29159 0.136511C6.45745 -0.285613 5.44483 0.349636 5.44483 1.29168V14.7945L0.109872 26.9436C0.03753 27.1078 0 27.2887 0 27.4682V86.7084C0 87.4218 0.571434 88 1.27617 88H55.7238C56.4287 88 57 87.4218 57 86.7084V27.4682C56.9998 27.2875 56.9626 27.109 56.89 26.9438ZM7.99701 3.3815L11.5949 5.20234C11.9541 5.38436 12.3771 5.38436 12.7363 5.20234L17.6103 2.73577L22.4844 5.20234C22.8436 5.38436 23.2666 5.38436 23.6258 5.20234L28.4998 2.73577L33.3739 5.20234C33.7331 5.38436 34.1563 5.38436 34.5154 5.20234L39.3893 2.73577L44.2634 5.20234C44.6226 5.38436 45.0458 5.38436 45.4049 5.20234L49.0026 3.3815V13.777H7.99701V3.3815ZM2.55218 65.9569H30.7747L35.9855 70.1761L30.7747 74.3953H2.55218V65.9569ZM35.3059 28.7595H43.5582V85.4169H2.55218V76.9785H31.2223C31.512 76.9785 31.7933 76.8787 32.0196 76.6955L38.8255 71.1846C39.454 70.6756 39.454 69.6766 38.8255 69.1675L32.0196 63.6567C31.7933 63.4737 31.5122 63.3736 31.2223 63.3736H2.55218V28.7595H29.3506C30.0555 28.7595 30.6268 28.1813 30.6268 27.4678C30.6268 26.7544 30.0555 26.1762 29.3506 26.1762H3.23993L7.55039 16.3601H48.3156L44.0053 26.1762H35.3059C34.601 26.1762 34.0297 26.7544 34.0297 27.4678C34.0297 28.1813 34.601 28.7595 35.3059 28.7595ZM54.4477 85.4167H46.1103V27.7423L50.279 18.2488L54.4477 27.7423V85.4167Z"/>
<path d="M23.0552 41.3308C17.2853 41.3308 12.5911 46.0819 12.5911 51.9217C12.5911 57.2594 16.503 60.4461 23.0552 60.4461C29.6076 60.4461 33.5193 57.2594 33.5193 51.9217C33.5193 46.0819 28.8251 41.3308 23.0552 41.3308ZM23.0552 57.863C20.1004 57.863 15.1433 57.0911 15.1433 51.9217C15.1433 47.506 18.6926 43.9139 23.0552 43.9139C27.418 43.9139 30.9671 47.506 30.9671 51.9217C30.9671 57.0913 26.01 57.863 23.0552 57.863Z"/>
<path d="M17.9506 30.9981C15.3423 30.9981 13.6118 34.2632 13.6118 36.4228C13.6118 38.8444 15.5583 40.8142 17.9506 40.8142C20.3432 40.8142 22.2895 38.8444 22.2895 36.4228C22.2895 34.2632 20.559 30.9981 17.9506 30.9981ZM17.9506 38.231C16.9655 38.231 16.164 37.4199 16.164 36.4227C16.164 35.2012 17.1826 33.5812 17.9506 33.5812C18.7187 33.5812 19.7373 35.201 19.7373 36.4227C19.7373 37.4199 18.9357 38.231 17.9506 38.231Z"/>
<path d="M28.1595 30.9981C25.5513 30.9981 23.8207 34.2632 23.8207 36.4228C23.8207 38.8444 25.7671 40.8142 28.1595 40.8142C30.5521 40.8142 32.4983 38.8444 32.4983 36.4228C32.4983 34.2632 30.7677 30.9981 28.1595 30.9981ZM28.1595 38.231C27.1744 38.231 26.3729 37.4199 26.3729 36.4227C26.3729 35.2012 27.3916 33.5812 28.1595 33.5812C28.9276 33.5812 29.9461 35.201 29.9461 36.4227C29.9461 37.4199 29.1448 38.231 28.1595 38.231Z"/>
<path d="M36.3267 37.1976C33.7185 37.1976 31.9879 40.4627 31.9879 42.6223C31.9879 45.0439 33.9341 47.0137 36.3267 47.0137C38.7192 47.0137 40.6655 45.0439 40.6655 42.6223C40.6655 40.4629 38.9349 37.1976 36.3267 37.1976ZM36.3267 44.4306C35.3416 44.4306 34.54 43.6195 34.54 42.6223C34.54 41.4006 35.5586 39.7809 36.3267 39.7809C37.0947 39.7809 38.1133 41.4006 38.1133 42.6223C38.1133 43.6195 37.3119 44.4306 36.3267 44.4306Z"/>
<path d="M9.78349 37.1976C7.17511 37.1976 5.44468 40.4627 5.44468 42.6223C5.44468 45.0439 7.39095 47.0137 9.78349 47.0137C12.176 47.0137 14.1223 45.0439 14.1223 42.6223C14.1223 40.4629 12.3919 37.1976 9.78349 37.1976ZM9.78349 44.4306C8.79839 44.4306 7.99685 43.6195 7.99685 42.6223C7.99685 41.4006 9.01541 39.7809 9.78349 39.7809C10.5516 39.7809 11.5701 41.4006 11.5701 42.6223C11.5701 43.6195 10.7686 44.4306 9.78349 44.4306Z"/>
<path d="M12.1657 79.9061H6.72085C6.01611 79.9061 5.44468 80.4843 5.44468 81.1978C5.44468 81.9112 6.01611 82.4894 6.72085 82.4894H12.1657C12.8704 82.4894 13.4419 81.9112 13.4419 81.1978C13.4417 80.4841 12.8704 79.9061 12.1657 79.9061Z"/>
<path d="M29.8611 79.9061H17.6103C16.9056 79.9061 16.3342 80.4843 16.3342 81.1978C16.3342 81.9112 16.9056 82.4894 17.6103 82.4894H29.8611C30.566 82.4894 31.1373 81.9112 31.1373 81.1978C31.1373 80.4841 30.566 79.9061 29.8611 79.9061Z"/>
<path d="M16.2492 68.8847H6.72076C6.01602 68.8847 5.44459 69.4629 5.44459 70.1763C5.44459 70.8898 6.01602 71.4679 6.72076 71.4679H16.2492C16.9539 71.4679 17.5253 70.8898 17.5253 70.1763C17.5253 69.4627 16.9541 68.8847 16.2492 68.8847Z"/>
<path d="M28.4999 68.8847H21.694C20.9892 68.8847 20.4178 69.4629 20.4178 70.1763C20.4178 70.8898 20.9892 71.4679 21.694 71.4679H28.4999C29.2048 71.4679 29.7761 70.8898 29.7761 70.1763C29.7761 69.4627 29.205 68.8847 28.4999 68.8847Z"/>
</mask>
<path d="M56.89 26.9438L51.5552 14.7947V1.29168C51.5552 0.349464 50.5425 -0.285613 49.7084 0.136511L44.8343 2.60326L39.9603 0.136511C39.6011 -0.0455038 39.1779 -0.0455038 38.8187 0.136511L33.9447 2.60326L29.0708 0.136511C28.7116 -0.0455038 28.2884 -0.0455038 27.9292 0.136511L23.0552 2.60326L18.1811 0.136511C17.8219 -0.0455038 17.3989 -0.0455038 17.0397 0.136511L12.1657 2.60326L7.29159 0.136511C6.45745 -0.285613 5.44483 0.349636 5.44483 1.29168V14.7945L0.109872 26.9436C0.03753 27.1078 0 27.2887 0 27.4682V86.7084C0 87.4218 0.571434 88 1.27617 88H55.7238C56.4287 88 57 87.4218 57 86.7084V27.4682C56.9998 27.2875 56.9626 27.109 56.89 26.9438ZM7.99701 3.3815L11.5949 5.20234C11.9541 5.38436 12.3771 5.38436 12.7363 5.20234L17.6103 2.73577L22.4844 5.20234C22.8436 5.38436 23.2666 5.38436 23.6258 5.20234L28.4998 2.73577L33.3739 5.20234C33.7331 5.38436 34.1563 5.38436 34.5154 5.20234L39.3893 2.73577L44.2634 5.20234C44.6226 5.38436 45.0458 5.38436 45.4049 5.20234L49.0026 3.3815V13.777H7.99701V3.3815ZM2.55218 65.9569H30.7747L35.9855 70.1761L30.7747 74.3953H2.55218V65.9569ZM35.3059 28.7595H43.5582V85.4169H2.55218V76.9785H31.2223C31.512 76.9785 31.7933 76.8787 32.0196 76.6955L38.8255 71.1846C39.454 70.6756 39.454 69.6766 38.8255 69.1675L32.0196 63.6567C31.7933 63.4737 31.5122 63.3736 31.2223 63.3736H2.55218V28.7595H29.3506C30.0555 28.7595 30.6268 28.1813 30.6268 27.4678C30.6268 26.7544 30.0555 26.1762 29.3506 26.1762H3.23993L7.55039 16.3601H48.3156L44.0053 26.1762H35.3059C34.601 26.1762 34.0297 26.7544 34.0297 27.4678C34.0297 28.1813 34.601 28.7595 35.3059 28.7595ZM54.4477 85.4167H46.1103V27.7423L50.279 18.2488L54.4477 27.7423V85.4167Z" fill="#A07B50"/>
<path d="M23.0552 41.3308C17.2853 41.3308 12.5911 46.0819 12.5911 51.9217C12.5911 57.2594 16.503 60.4461 23.0552 60.4461C29.6076 60.4461 33.5193 57.2594 33.5193 51.9217C33.5193 46.0819 28.8251 41.3308 23.0552 41.3308ZM23.0552 57.863C20.1004 57.863 15.1433 57.0911 15.1433 51.9217C15.1433 47.506 18.6926 43.9139 23.0552 43.9139C27.418 43.9139 30.9671 47.506 30.9671 51.9217C30.9671 57.0913 26.01 57.863 23.0552 57.863Z" fill="#A07B50"/>
<path d="M17.9506 30.9981C15.3423 30.9981 13.6118 34.2632 13.6118 36.4228C13.6118 38.8444 15.5583 40.8142 17.9506 40.8142C20.3432 40.8142 22.2895 38.8444 22.2895 36.4228C22.2895 34.2632 20.559 30.9981 17.9506 30.9981ZM17.9506 38.231C16.9655 38.231 16.164 37.4199 16.164 36.4227C16.164 35.2012 17.1826 33.5812 17.9506 33.5812C18.7187 33.5812 19.7373 35.201 19.7373 36.4227C19.7373 37.4199 18.9357 38.231 17.9506 38.231Z" fill="#A07B50"/>
<path d="M28.1595 30.9981C25.5513 30.9981 23.8207 34.2632 23.8207 36.4228C23.8207 38.8444 25.7671 40.8142 28.1595 40.8142C30.5521 40.8142 32.4983 38.8444 32.4983 36.4228C32.4983 34.2632 30.7677 30.9981 28.1595 30.9981ZM28.1595 38.231C27.1744 38.231 26.3729 37.4199 26.3729 36.4227C26.3729 35.2012 27.3916 33.5812 28.1595 33.5812C28.9276 33.5812 29.9461 35.201 29.9461 36.4227C29.9461 37.4199 29.1448 38.231 28.1595 38.231Z" fill="#A07B50"/>
<path d="M36.3267 37.1976C33.7185 37.1976 31.9879 40.4627 31.9879 42.6223C31.9879 45.0439 33.9341 47.0137 36.3267 47.0137C38.7192 47.0137 40.6655 45.0439 40.6655 42.6223C40.6655 40.4629 38.9349 37.1976 36.3267 37.1976ZM36.3267 44.4306C35.3416 44.4306 34.54 43.6195 34.54 42.6223C34.54 41.4006 35.5586 39.7809 36.3267 39.7809C37.0947 39.7809 38.1133 41.4006 38.1133 42.6223C38.1133 43.6195 37.3119 44.4306 36.3267 44.4306Z" fill="#A07B50"/>
<path d="M9.78349 37.1976C7.17511 37.1976 5.44468 40.4627 5.44468 42.6223C5.44468 45.0439 7.39095 47.0137 9.78349 47.0137C12.176 47.0137 14.1223 45.0439 14.1223 42.6223C14.1223 40.4629 12.3919 37.1976 9.78349 37.1976ZM9.78349 44.4306C8.79839 44.4306 7.99685 43.6195 7.99685 42.6223C7.99685 41.4006 9.01541 39.7809 9.78349 39.7809C10.5516 39.7809 11.5701 41.4006 11.5701 42.6223C11.5701 43.6195 10.7686 44.4306 9.78349 44.4306Z" fill="#A07B50"/>
<path d="M12.1657 79.9061H6.72085C6.01611 79.9061 5.44468 80.4843 5.44468 81.1978C5.44468 81.9112 6.01611 82.4894 6.72085 82.4894H12.1657C12.8704 82.4894 13.4419 81.9112 13.4419 81.1978C13.4417 80.4841 12.8704 79.9061 12.1657 79.9061Z" fill="#A07B50"/>
<path d="M29.8611 79.9061H17.6103C16.9056 79.9061 16.3342 80.4843 16.3342 81.1978C16.3342 81.9112 16.9056 82.4894 17.6103 82.4894H29.8611C30.566 82.4894 31.1373 81.9112 31.1373 81.1978C31.1373 80.4841 30.566 79.9061 29.8611 79.9061Z" fill="#A07B50"/>
<path d="M16.2492 68.8847H6.72076C6.01602 68.8847 5.44459 69.4629 5.44459 70.1763C5.44459 70.8898 6.01602 71.4679 6.72076 71.4679H16.2492C16.9539 71.4679 17.5253 70.8898 17.5253 70.1763C17.5253 69.4627 16.9541 68.8847 16.2492 68.8847Z" fill="#A07B50"/>
<path d="M28.4999 68.8847H21.694C20.9892 68.8847 20.4178 69.4629 20.4178 70.1763C20.4178 70.8898 20.9892 71.4679 21.694 71.4679H28.4999C29.2048 71.4679 29.7761 70.8898 29.7761 70.1763C29.7761 69.4627 29.205 68.8847 28.4999 68.8847Z" fill="#A07B50"/>
<path d="M56.89 26.9438L51.5552 14.7947V1.29168C51.5552 0.349464 50.5425 -0.285613 49.7084 0.136511L44.8343 2.60326L39.9603 0.136511C39.6011 -0.0455038 39.1779 -0.0455038 38.8187 0.136511L33.9447 2.60326L29.0708 0.136511C28.7116 -0.0455038 28.2884 -0.0455038 27.9292 0.136511L23.0552 2.60326L18.1811 0.136511C17.8219 -0.0455038 17.3989 -0.0455038 17.0397 0.136511L12.1657 2.60326L7.29159 0.136511C6.45745 -0.285613 5.44483 0.349636 5.44483 1.29168V14.7945L0.109872 26.9436C0.03753 27.1078 0 27.2887 0 27.4682V86.7084C0 87.4218 0.571434 88 1.27617 88H55.7238C56.4287 88 57 87.4218 57 86.7084V27.4682C56.9998 27.2875 56.9626 27.109 56.89 26.9438ZM7.99701 3.3815L11.5949 5.20234C11.9541 5.38436 12.3771 5.38436 12.7363 5.20234L17.6103 2.73577L22.4844 5.20234C22.8436 5.38436 23.2666 5.38436 23.6258 5.20234L28.4998 2.73577L33.3739 5.20234C33.7331 5.38436 34.1563 5.38436 34.5154 5.20234L39.3893 2.73577L44.2634 5.20234C44.6226 5.38436 45.0458 5.38436 45.4049 5.20234L49.0026 3.3815V13.777H7.99701V3.3815ZM2.55218 65.9569H30.7747L35.9855 70.1761L30.7747 74.3953H2.55218V65.9569ZM35.3059 28.7595H43.5582V85.4169H2.55218V76.9785H31.2223C31.512 76.9785 31.7933 76.8787 32.0196 76.6955L38.8255 71.1846C39.454 70.6756 39.454 69.6766 38.8255 69.1675L32.0196 63.6567C31.7933 63.4737 31.5122 63.3736 31.2223 63.3736H2.55218V28.7595H29.3506C30.0555 28.7595 30.6268 28.1813 30.6268 27.4678C30.6268 26.7544 30.0555 26.1762 29.3506 26.1762H3.23993L7.55039 16.3601H48.3156L44.0053 26.1762H35.3059C34.601 26.1762 34.0297 26.7544 34.0297 27.4678C34.0297 28.1813 34.601 28.7595 35.3059 28.7595ZM54.4477 85.4167H46.1103V27.7423L50.279 18.2488L54.4477 27.7423V85.4167Z" stroke="#1F1C1D" mask="url(#path-1-inside-1)"/>
<path d="M23.0552 41.3308C17.2853 41.3308 12.5911 46.0819 12.5911 51.9217C12.5911 57.2594 16.503 60.4461 23.0552 60.4461C29.6076 60.4461 33.5193 57.2594 33.5193 51.9217C33.5193 46.0819 28.8251 41.3308 23.0552 41.3308ZM23.0552 57.863C20.1004 57.863 15.1433 57.0911 15.1433 51.9217C15.1433 47.506 18.6926 43.9139 23.0552 43.9139C27.418 43.9139 30.9671 47.506 30.9671 51.9217C30.9671 57.0913 26.01 57.863 23.0552 57.863Z" stroke="#1F1C1D" mask="url(#path-1-inside-1)"/>
<path d="M17.9506 30.9981C15.3423 30.9981 13.6118 34.2632 13.6118 36.4228C13.6118 38.8444 15.5583 40.8142 17.9506 40.8142C20.3432 40.8142 22.2895 38.8444 22.2895 36.4228C22.2895 34.2632 20.559 30.9981 17.9506 30.9981ZM17.9506 38.231C16.9655 38.231 16.164 37.4199 16.164 36.4227C16.164 35.2012 17.1826 33.5812 17.9506 33.5812C18.7187 33.5812 19.7373 35.201 19.7373 36.4227C19.7373 37.4199 18.9357 38.231 17.9506 38.231Z" stroke="#1F1C1D" mask="url(#path-1-inside-1)"/>
<path d="M28.1595 30.9981C25.5513 30.9981 23.8207 34.2632 23.8207 36.4228C23.8207 38.8444 25.7671 40.8142 28.1595 40.8142C30.5521 40.8142 32.4983 38.8444 32.4983 36.4228C32.4983 34.2632 30.7677 30.9981 28.1595 30.9981ZM28.1595 38.231C27.1744 38.231 26.3729 37.4199 26.3729 36.4227C26.3729 35.2012 27.3916 33.5812 28.1595 33.5812C28.9276 33.5812 29.9461 35.201 29.9461 36.4227C29.9461 37.4199 29.1448 38.231 28.1595 38.231Z" stroke="#1F1C1D" mask="url(#path-1-inside-1)"/>
<path d="M36.3267 37.1976C33.7185 37.1976 31.9879 40.4627 31.9879 42.6223C31.9879 45.0439 33.9341 47.0137 36.3267 47.0137C38.7192 47.0137 40.6655 45.0439 40.6655 42.6223C40.6655 40.4629 38.9349 37.1976 36.3267 37.1976ZM36.3267 44.4306C35.3416 44.4306 34.54 43.6195 34.54 42.6223C34.54 41.4006 35.5586 39.7809 36.3267 39.7809C37.0947 39.7809 38.1133 41.4006 38.1133 42.6223C38.1133 43.6195 37.3119 44.4306 36.3267 44.4306Z" stroke="#1F1C1D" mask="url(#path-1-inside-1)"/>
<path d="M9.78349 37.1976C7.17511 37.1976 5.44468 40.4627 5.44468 42.6223C5.44468 45.0439 7.39095 47.0137 9.78349 47.0137C12.176 47.0137 14.1223 45.0439 14.1223 42.6223C14.1223 40.4629 12.3919 37.1976 9.78349 37.1976ZM9.78349 44.4306C8.79839 44.4306 7.99685 43.6195 7.99685 42.6223C7.99685 41.4006 9.01541 39.7809 9.78349 39.7809C10.5516 39.7809 11.5701 41.4006 11.5701 42.6223C11.5701 43.6195 10.7686 44.4306 9.78349 44.4306Z" stroke="#1F1C1D" mask="url(#path-1-inside-1)"/>
<path d="M12.1657 79.9061H6.72085C6.01611 79.9061 5.44468 80.4843 5.44468 81.1978C5.44468 81.9112 6.01611 82.4894 6.72085 82.4894H12.1657C12.8704 82.4894 13.4419 81.9112 13.4419 81.1978C13.4417 80.4841 12.8704 79.9061 12.1657 79.9061Z" stroke="#1F1C1D" mask="url(#path-1-inside-1)"/>
<path d="M29.8611 79.9061H17.6103C16.9056 79.9061 16.3342 80.4843 16.3342 81.1978C16.3342 81.9112 16.9056 82.4894 17.6103 82.4894H29.8611C30.566 82.4894 31.1373 81.9112 31.1373 81.1978C31.1373 80.4841 30.566 79.9061 29.8611 79.9061Z" stroke="#1F1C1D" mask="url(#path-1-inside-1)"/>
<path d="M16.2492 68.8847H6.72076C6.01602 68.8847 5.44459 69.4629 5.44459 70.1763C5.44459 70.8898 6.01602 71.4679 6.72076 71.4679H16.2492C16.9539 71.4679 17.5253 70.8898 17.5253 70.1763C17.5253 69.4627 16.9541 68.8847 16.2492 68.8847Z" stroke="#1F1C1D" mask="url(#path-1-inside-1)"/>
<path d="M28.4999 68.8847H21.694C20.9892 68.8847 20.4178 69.4629 20.4178 70.1763C20.4178 70.8898 20.9892 71.4679 21.694 71.4679H28.4999C29.2048 71.4679 29.7761 70.8898 29.7761 70.1763C29.7761 69.4627 29.205 68.8847 28.4999 68.8847Z" stroke="#1F1C1D" mask="url(#path-1-inside-1)"/>
</symbol><symbol id="review-twitter-icon" viewBox="0 0 28 28">
  <path d="M20.1872 13.335C21.0858 13.2543 21.6953 12.8095 21.9299 12.2061C21.6058 12.4229 20.5995 12.6592 20.0438 12.4341C20.0166 12.292 19.9861 12.1569 19.9563 12.035C19.5328 10.3423 18.083 8.97853 16.5639 9.14328C16.6868 9.08925 16.8115 9.03895 16.9358 8.9938C17.103 8.92859 18.084 8.75481 17.9296 8.37781C17.7994 8.04621 16.6007 8.62842 16.375 8.70451C16.673 8.58253 17.1657 8.37271 17.2185 8C16.762 8.06816 16.314 8.30309 15.9677 8.6447C16.0927 8.49821 16.1876 8.3197 16.2077 8.12757C14.9903 8.97428 14.2792 10.6813 13.7037 12.3372C13.2518 11.8604 12.8512 11.4849 12.4919 11.2764C11.4839 10.6879 10.2787 10.0739 8.38681 9.30932C8.32874 9.99079 8.69638 10.8969 9.75574 11.4995C9.52622 11.466 9.1065 11.5407 8.77082 11.6282C8.90753 12.4089 9.35399 13.0521 10.5627 13.3631C10.0103 13.4028 9.72483 13.5396 9.46611 13.8346C9.71769 14.3776 10.3316 15.0166 11.4359 14.8854C10.2081 15.4615 10.9353 16.5285 11.9343 16.3694C10.23 18.2859 7.54298 18.145 6 16.542C10.0286 22.5185 18.786 20.0765 20.091 14.3201C21.0688 14.3291 21.6436 13.9513 22 13.5348C21.4367 13.6389 20.6201 13.5313 20.1872 13.335Z" fill="#A07B50"/>
</symbol><symbol id="review-vk-icon" viewBox="0 0 28 29">
 <path d="M22.8396 17.9206C22.7912 17.8417 22.4919 17.2085 21.0518 15.9071C19.5442 14.5444 19.7467 14.7657 21.5626 12.4093C22.6685 10.9742 23.1107 10.0979 22.9723 9.72323C22.8407 9.3661 22.0273 9.46031 22.0273 9.46031L19.3226 9.47565C19.3226 9.47565 19.1223 9.44936 18.9727 9.5359C18.8275 9.62135 18.7341 9.81853 18.7341 9.81853C18.7341 9.81853 18.3055 10.9293 17.7339 11.8736C16.529 13.8663 16.0463 13.9714 15.8494 13.8477C15.3915 13.5595 15.5063 12.6886 15.5063 12.0708C15.5063 10.1395 15.8067 9.33433 14.9201 9.1262C14.6253 9.05718 14.4093 9.01117 13.6566 9.0035C12.6913 8.99365 11.8734 9.00679 11.411 9.22698C11.1027 9.37377 10.8653 9.70132 11.0104 9.71994C11.1893 9.74294 11.5944 9.8262 11.8093 10.111C12.0871 10.478 12.077 11.304 12.077 11.304C12.077 11.304 12.2368 13.5771 11.7046 13.8597C11.339 14.0536 10.8383 13.6581 9.76385 11.8495C9.21369 10.9239 8.7974 9.8996 8.7974 9.8996C8.7974 9.8996 8.71752 9.70898 8.57464 9.60711C8.40138 9.48332 8.15836 9.44388 8.15836 9.44388L5.58642 9.45922C5.58642 9.45922 5.20052 9.47017 5.05876 9.6334C4.93275 9.77909 5.04863 10.0793 5.04863 10.0793C5.04863 10.0793 7.06253 14.666 9.34194 16.9785C11.4335 19.0982 13.8074 18.9591 13.8074 18.9591H14.883C14.883 18.9591 15.2081 18.924 15.3735 18.7499C15.5265 18.5899 15.5209 18.2898 15.5209 18.2898C15.5209 18.2898 15.4995 16.8843 16.1701 16.6772C16.8305 16.4735 17.6788 18.0356 18.5777 18.637C19.2573 19.0916 19.7737 18.992 19.7737 18.992L22.178 18.9591C22.178 18.9591 23.4359 18.8835 22.8396 17.9206Z" fill="#A07B50"/>
</symbol><symbol id="stethoscope-icon" viewBox="0 0 80 88">
<mask id="path-1-inside-1" fill="white">
<path d="M10.8778 19.2876C4.87968 19.2876 0 24.1933 0 30.223C0 35.8156 4.1987 40.4382 9.59317 41.0795V49.5107C9.59317 50.2239 10.1685 50.8023 10.878 50.8023C11.5875 50.8023 12.1629 50.2239 12.1629 49.5107V41.0795C17.5573 40.4382 21.756 35.8155 21.756 30.223C21.7559 24.1933 16.876 19.2876 10.8778 19.2876ZM10.8778 38.5753C6.29668 38.5753 2.56952 34.8284 2.56952 30.223C2.56952 25.6176 6.29668 21.8707 10.8778 21.8707C15.459 21.8707 19.1862 25.6176 19.1862 30.223C19.1862 34.8284 15.4592 38.5753 10.8778 38.5753Z"/>
<path d="M10.8779 24.7985C7.90246 24.7985 5.48168 27.2321 5.48168 30.2232C5.48168 33.2144 7.90246 35.6479 10.8779 35.6479C13.8533 35.6479 16.274 33.2144 16.274 30.2232C16.274 27.2321 13.8533 24.7985 10.8779 24.7985ZM10.8779 33.0647C9.31929 33.0647 8.05137 31.7899 8.05137 30.2232C8.05137 28.6566 9.31946 27.3818 10.8779 27.3818C12.4364 27.3818 13.7044 28.6566 13.7044 30.2232C13.7044 31.7899 12.4364 33.0647 10.8779 33.0647Z"/>
<path d="M78.7148 30.998H77.9439V8.86892C77.9439 5.11809 74.9083 2.06662 71.1774 2.06662H68.3509V1.29164C68.3509 0.578359 67.7757 0 67.066 0H63.64C61.7981 0 60.2995 1.50648 60.2995 3.35809C60.2995 5.2097 61.7981 6.71619 63.64 6.71619H67.066C67.7757 6.71619 68.3509 6.13783 68.3509 5.42455V4.64956H71.1774C73.4917 4.64956 75.3744 6.54242 75.3744 8.86875V30.9978H74.6035C73.8938 30.9978 73.3186 31.5762 73.3186 32.2895V34.3559C73.3186 40.1008 68.6693 44.7746 62.9547 44.7746H46.5094C40.7948 44.7746 36.1455 40.1008 36.1455 34.3559V32.2895C36.1455 31.5762 35.5701 30.9978 34.8606 30.9978H34.0897V8.86892C34.0897 6.54259 35.9726 4.64973 38.2867 4.64973H41.1132V5.42472C41.1132 6.138 41.6883 6.71636 42.398 6.71636H45.8241C47.666 6.71636 49.1646 5.20987 49.1646 3.35827C49.1647 1.50648 47.6662 0 45.8241 0H42.398C41.6883 0 41.1132 0.578359 41.1132 1.29164V2.06662H38.2867C34.5556 2.06662 31.5202 5.11827 31.5202 8.86892V30.998H30.7493C30.0397 30.998 29.4644 31.5764 29.4644 32.2896V34.3561C29.4644 43.8042 37.1108 51.4912 46.5094 51.4912H51.3916V57.7768C51.3916 58.4901 51.9668 59.0685 52.6765 59.0685H53.4474V66.043C53.4474 76.7257 44.8019 85.4167 34.1755 85.4167H31.4347C20.8082 85.4167 12.1629 76.7257 12.1629 66.043V55.7676C12.1629 55.0543 11.5876 54.4759 10.878 54.4759C10.1685 54.4759 9.59317 55.0543 9.59317 55.7676V66.043C9.59317 78.1502 19.3912 88 31.4347 88H34.1755C46.2191 88 56.0171 78.1502 56.0171 66.043V59.0685H56.788C57.4977 59.0685 58.0728 58.4901 58.0728 57.7768V51.4912H62.9551C72.3535 51.4912 80 43.8044 80 34.3561V32.2896C79.9997 31.5764 79.4245 30.998 78.7148 30.998ZM65.7812 4.13308H63.64C63.2149 4.13308 62.8691 3.78537 62.8691 3.35809C62.8691 2.93081 63.2149 2.58311 63.64 2.58311H65.7812V4.13308ZM43.6829 2.58311H45.8241C46.2492 2.58311 46.595 2.93081 46.595 3.35809C46.595 3.78537 46.2492 4.13308 45.8241 4.13308H43.6829V2.58311ZM77.4301 34.3561C77.4301 42.3799 70.9367 48.9079 62.9549 48.9079H56.788C56.0783 48.9079 55.5031 49.4862 55.5031 50.1995V56.4852H53.9613V50.1995C53.9613 49.4862 53.3862 48.9079 52.6765 48.9079H46.5095C38.5278 48.9079 32.0343 42.3799 32.0343 34.3561V33.5811H33.5761V34.3561C33.5761 41.5255 39.378 47.3581 46.5097 47.3581H62.9551C70.0868 47.3581 75.8887 41.5255 75.8887 34.3561V33.5811H77.4305L77.4301 34.3561Z"/>
<path d="M54.732 20.6653C48.923 20.6653 44.1968 25.4165 44.1968 31.2563C44.1968 36.594 48.1351 39.7808 54.732 39.7808C61.3289 39.7808 65.2673 36.594 65.2673 31.2563C65.2674 25.4165 60.5413 20.6653 54.732 20.6653ZM54.732 37.1977C51.7571 37.1977 46.7663 36.4258 46.7663 31.2563C46.7663 26.8408 50.3396 23.2485 54.732 23.2485C59.1244 23.2485 62.6977 26.8408 62.6977 31.2563C62.6977 36.4258 57.7069 37.1977 54.732 37.1977Z"/>
<path d="M49.593 10.3327C46.967 10.3327 45.2247 13.5976 45.2247 15.7574C45.2247 18.1789 47.1842 20.1488 49.593 20.1488C52.0018 20.1488 53.9613 18.1789 53.9613 15.7574C53.9611 13.5978 52.2189 10.3327 49.593 10.3327ZM49.593 17.5657C48.6012 17.5657 47.7942 16.7546 47.7942 15.7574C47.7942 14.5359 48.8197 12.9159 49.593 12.9159C50.3663 12.9159 51.3918 14.5359 51.3918 15.7574C51.3916 16.7544 50.5848 17.5657 49.593 17.5657Z"/>
<path d="M59.8712 10.3327C57.2453 10.3327 55.5029 13.5976 55.5029 15.7574C55.5029 18.1789 57.4624 20.1488 59.8712 20.1488C62.28 20.1488 64.2395 18.1789 64.2395 15.7574C64.2395 13.5978 62.4972 10.3327 59.8712 10.3327ZM59.8712 17.5657C58.8794 17.5657 58.0724 16.7546 58.0724 15.7574C58.0724 14.5359 59.0979 12.9159 59.8712 12.9159C60.6445 12.9159 61.67 14.5359 61.67 15.7574C61.67 16.7544 60.863 17.5657 59.8712 17.5657Z"/>
<path d="M68.0939 16.5323C65.4679 16.5323 63.7256 19.7972 63.7256 21.957C63.7256 24.3786 65.6851 26.3484 68.0939 26.3484C70.5027 26.3484 72.4622 24.3786 72.4622 21.957C72.4622 19.7972 70.7198 16.5323 68.0939 16.5323ZM68.0939 23.7651C67.1021 23.7651 66.2951 22.9541 66.2951 21.9568C66.2951 20.7353 67.3206 19.1154 68.0939 19.1154C68.8672 19.1154 69.8927 20.7353 69.8927 21.9568C69.8925 22.9541 69.0857 23.7651 68.0939 23.7651Z"/>
<path d="M41.3703 16.5323C38.7444 16.5323 37.002 19.7972 37.002 21.957C37.002 24.3786 38.9615 26.3484 41.3703 26.3484C43.7791 26.3484 45.7386 24.3786 45.7386 21.957C45.7386 19.7972 43.9963 16.5323 41.3703 16.5323ZM41.3703 23.7651C40.3785 23.7651 39.5715 22.9541 39.5715 21.9568C39.5715 20.7353 40.597 19.1154 41.3703 19.1154C42.1436 19.1154 43.1691 20.7353 43.1691 21.9568C43.1689 22.9541 42.3621 23.7651 41.3703 23.7651Z"/>
</mask>
<path d="M10.8778 19.2876C4.87968 19.2876 0 24.1933 0 30.223C0 35.8156 4.1987 40.4382 9.59317 41.0795V49.5107C9.59317 50.2239 10.1685 50.8023 10.878 50.8023C11.5875 50.8023 12.1629 50.2239 12.1629 49.5107V41.0795C17.5573 40.4382 21.756 35.8155 21.756 30.223C21.7559 24.1933 16.876 19.2876 10.8778 19.2876ZM10.8778 38.5753C6.29668 38.5753 2.56952 34.8284 2.56952 30.223C2.56952 25.6176 6.29668 21.8707 10.8778 21.8707C15.459 21.8707 19.1862 25.6176 19.1862 30.223C19.1862 34.8284 15.4592 38.5753 10.8778 38.5753Z" fill="white"/>
<path d="M10.8779 24.7985C7.90246 24.7985 5.48168 27.2321 5.48168 30.2232C5.48168 33.2144 7.90246 35.6479 10.8779 35.6479C13.8533 35.6479 16.274 33.2144 16.274 30.2232C16.274 27.2321 13.8533 24.7985 10.8779 24.7985ZM10.8779 33.0647C9.31929 33.0647 8.05137 31.7899 8.05137 30.2232C8.05137 28.6566 9.31946 27.3818 10.8779 27.3818C12.4364 27.3818 13.7044 28.6566 13.7044 30.2232C13.7044 31.7899 12.4364 33.0647 10.8779 33.0647Z" fill="white"/>
<path d="M78.7148 30.998H77.9439V8.86892C77.9439 5.11809 74.9083 2.06662 71.1774 2.06662H68.3509V1.29164C68.3509 0.578359 67.7757 0 67.066 0H63.64C61.7981 0 60.2995 1.50648 60.2995 3.35809C60.2995 5.2097 61.7981 6.71619 63.64 6.71619H67.066C67.7757 6.71619 68.3509 6.13783 68.3509 5.42455V4.64956H71.1774C73.4917 4.64956 75.3744 6.54242 75.3744 8.86875V30.9978H74.6035C73.8938 30.9978 73.3186 31.5762 73.3186 32.2895V34.3559C73.3186 40.1008 68.6693 44.7746 62.9547 44.7746H46.5094C40.7948 44.7746 36.1455 40.1008 36.1455 34.3559V32.2895C36.1455 31.5762 35.5701 30.9978 34.8606 30.9978H34.0897V8.86892C34.0897 6.54259 35.9726 4.64973 38.2867 4.64973H41.1132V5.42472C41.1132 6.138 41.6883 6.71636 42.398 6.71636H45.8241C47.666 6.71636 49.1646 5.20987 49.1646 3.35827C49.1647 1.50648 47.6662 0 45.8241 0H42.398C41.6883 0 41.1132 0.578359 41.1132 1.29164V2.06662H38.2867C34.5556 2.06662 31.5202 5.11827 31.5202 8.86892V30.998H30.7493C30.0397 30.998 29.4644 31.5764 29.4644 32.2896V34.3561C29.4644 43.8042 37.1108 51.4912 46.5094 51.4912H51.3916V57.7768C51.3916 58.4901 51.9668 59.0685 52.6765 59.0685H53.4474V66.043C53.4474 76.7257 44.8019 85.4167 34.1755 85.4167H31.4347C20.8082 85.4167 12.1629 76.7257 12.1629 66.043V55.7676C12.1629 55.0543 11.5876 54.4759 10.878 54.4759C10.1685 54.4759 9.59317 55.0543 9.59317 55.7676V66.043C9.59317 78.1502 19.3912 88 31.4347 88H34.1755C46.2191 88 56.0171 78.1502 56.0171 66.043V59.0685H56.788C57.4977 59.0685 58.0728 58.4901 58.0728 57.7768V51.4912H62.9551C72.3535 51.4912 80 43.8044 80 34.3561V32.2896C79.9997 31.5764 79.4245 30.998 78.7148 30.998ZM65.7812 4.13308H63.64C63.2149 4.13308 62.8691 3.78537 62.8691 3.35809C62.8691 2.93081 63.2149 2.58311 63.64 2.58311H65.7812V4.13308ZM43.6829 2.58311H45.8241C46.2492 2.58311 46.595 2.93081 46.595 3.35809C46.595 3.78537 46.2492 4.13308 45.8241 4.13308H43.6829V2.58311ZM77.4301 34.3561C77.4301 42.3799 70.9367 48.9079 62.9549 48.9079H56.788C56.0783 48.9079 55.5031 49.4862 55.5031 50.1995V56.4852H53.9613V50.1995C53.9613 49.4862 53.3862 48.9079 52.6765 48.9079H46.5095C38.5278 48.9079 32.0343 42.3799 32.0343 34.3561V33.5811H33.5761V34.3561C33.5761 41.5255 39.378 47.3581 46.5097 47.3581H62.9551C70.0868 47.3581 75.8887 41.5255 75.8887 34.3561V33.5811H77.4305L77.4301 34.3561Z" fill="white"/>
<path d="M54.732 20.6653C48.923 20.6653 44.1968 25.4165 44.1968 31.2563C44.1968 36.594 48.1351 39.7808 54.732 39.7808C61.3289 39.7808 65.2673 36.594 65.2673 31.2563C65.2674 25.4165 60.5413 20.6653 54.732 20.6653ZM54.732 37.1977C51.7571 37.1977 46.7663 36.4258 46.7663 31.2563C46.7663 26.8408 50.3396 23.2485 54.732 23.2485C59.1244 23.2485 62.6977 26.8408 62.6977 31.2563C62.6977 36.4258 57.7069 37.1977 54.732 37.1977Z" fill="white"/>
<path d="M49.593 10.3327C46.967 10.3327 45.2247 13.5976 45.2247 15.7574C45.2247 18.1789 47.1842 20.1488 49.593 20.1488C52.0018 20.1488 53.9613 18.1789 53.9613 15.7574C53.9611 13.5978 52.2189 10.3327 49.593 10.3327ZM49.593 17.5657C48.6012 17.5657 47.7942 16.7546 47.7942 15.7574C47.7942 14.5359 48.8197 12.9159 49.593 12.9159C50.3663 12.9159 51.3918 14.5359 51.3918 15.7574C51.3916 16.7544 50.5848 17.5657 49.593 17.5657Z" fill="white"/>
<path d="M59.8712 10.3327C57.2453 10.3327 55.5029 13.5976 55.5029 15.7574C55.5029 18.1789 57.4624 20.1488 59.8712 20.1488C62.28 20.1488 64.2395 18.1789 64.2395 15.7574C64.2395 13.5978 62.4972 10.3327 59.8712 10.3327ZM59.8712 17.5657C58.8794 17.5657 58.0724 16.7546 58.0724 15.7574C58.0724 14.5359 59.0979 12.9159 59.8712 12.9159C60.6445 12.9159 61.67 14.5359 61.67 15.7574C61.67 16.7544 60.863 17.5657 59.8712 17.5657Z" fill="white"/>
<path d="M68.0939 16.5323C65.4679 16.5323 63.7256 19.7972 63.7256 21.957C63.7256 24.3786 65.6851 26.3484 68.0939 26.3484C70.5027 26.3484 72.4622 24.3786 72.4622 21.957C72.4622 19.7972 70.7198 16.5323 68.0939 16.5323ZM68.0939 23.7651C67.1021 23.7651 66.2951 22.9541 66.2951 21.9568C66.2951 20.7353 67.3206 19.1154 68.0939 19.1154C68.8672 19.1154 69.8927 20.7353 69.8927 21.9568C69.8925 22.9541 69.0857 23.7651 68.0939 23.7651Z" fill="white"/>
<path d="M41.3703 16.5323C38.7444 16.5323 37.002 19.7972 37.002 21.957C37.002 24.3786 38.9615 26.3484 41.3703 26.3484C43.7791 26.3484 45.7386 24.3786 45.7386 21.957C45.7386 19.7972 43.9963 16.5323 41.3703 16.5323ZM41.3703 23.7651C40.3785 23.7651 39.5715 22.9541 39.5715 21.9568C39.5715 20.7353 40.597 19.1154 41.3703 19.1154C42.1436 19.1154 43.1691 20.7353 43.1691 21.9568C43.1689 22.9541 42.3621 23.7651 41.3703 23.7651Z" fill="white"/>
<path d="M10.8778 19.2876C4.87968 19.2876 0 24.1933 0 30.223C0 35.8156 4.1987 40.4382 9.59317 41.0795V49.5107C9.59317 50.2239 10.1685 50.8023 10.878 50.8023C11.5875 50.8023 12.1629 50.2239 12.1629 49.5107V41.0795C17.5573 40.4382 21.756 35.8155 21.756 30.223C21.7559 24.1933 16.876 19.2876 10.8778 19.2876ZM10.8778 38.5753C6.29668 38.5753 2.56952 34.8284 2.56952 30.223C2.56952 25.6176 6.29668 21.8707 10.8778 21.8707C15.459 21.8707 19.1862 25.6176 19.1862 30.223C19.1862 34.8284 15.4592 38.5753 10.8778 38.5753Z" stroke="#A07B50" mask="url(#path-1-inside-1)"/>
<path d="M10.8779 24.7985C7.90246 24.7985 5.48168 27.2321 5.48168 30.2232C5.48168 33.2144 7.90246 35.6479 10.8779 35.6479C13.8533 35.6479 16.274 33.2144 16.274 30.2232C16.274 27.2321 13.8533 24.7985 10.8779 24.7985ZM10.8779 33.0647C9.31929 33.0647 8.05137 31.7899 8.05137 30.2232C8.05137 28.6566 9.31946 27.3818 10.8779 27.3818C12.4364 27.3818 13.7044 28.6566 13.7044 30.2232C13.7044 31.7899 12.4364 33.0647 10.8779 33.0647Z" stroke="#A07B50" mask="url(#path-1-inside-1)"/>
<path d="M78.7148 30.998H77.9439V8.86892C77.9439 5.11809 74.9083 2.06662 71.1774 2.06662H68.3509V1.29164C68.3509 0.578359 67.7757 0 67.066 0H63.64C61.7981 0 60.2995 1.50648 60.2995 3.35809C60.2995 5.2097 61.7981 6.71619 63.64 6.71619H67.066C67.7757 6.71619 68.3509 6.13783 68.3509 5.42455V4.64956H71.1774C73.4917 4.64956 75.3744 6.54242 75.3744 8.86875V30.9978H74.6035C73.8938 30.9978 73.3186 31.5762 73.3186 32.2895V34.3559C73.3186 40.1008 68.6693 44.7746 62.9547 44.7746H46.5094C40.7948 44.7746 36.1455 40.1008 36.1455 34.3559V32.2895C36.1455 31.5762 35.5701 30.9978 34.8606 30.9978H34.0897V8.86892C34.0897 6.54259 35.9726 4.64973 38.2867 4.64973H41.1132V5.42472C41.1132 6.138 41.6883 6.71636 42.398 6.71636H45.8241C47.666 6.71636 49.1646 5.20987 49.1646 3.35827C49.1647 1.50648 47.6662 0 45.8241 0H42.398C41.6883 0 41.1132 0.578359 41.1132 1.29164V2.06662H38.2867C34.5556 2.06662 31.5202 5.11827 31.5202 8.86892V30.998H30.7493C30.0397 30.998 29.4644 31.5764 29.4644 32.2896V34.3561C29.4644 43.8042 37.1108 51.4912 46.5094 51.4912H51.3916V57.7768C51.3916 58.4901 51.9668 59.0685 52.6765 59.0685H53.4474V66.043C53.4474 76.7257 44.8019 85.4167 34.1755 85.4167H31.4347C20.8082 85.4167 12.1629 76.7257 12.1629 66.043V55.7676C12.1629 55.0543 11.5876 54.4759 10.878 54.4759C10.1685 54.4759 9.59317 55.0543 9.59317 55.7676V66.043C9.59317 78.1502 19.3912 88 31.4347 88H34.1755C46.2191 88 56.0171 78.1502 56.0171 66.043V59.0685H56.788C57.4977 59.0685 58.0728 58.4901 58.0728 57.7768V51.4912H62.9551C72.3535 51.4912 80 43.8044 80 34.3561V32.2896C79.9997 31.5764 79.4245 30.998 78.7148 30.998ZM65.7812 4.13308H63.64C63.2149 4.13308 62.8691 3.78537 62.8691 3.35809C62.8691 2.93081 63.2149 2.58311 63.64 2.58311H65.7812V4.13308ZM43.6829 2.58311H45.8241C46.2492 2.58311 46.595 2.93081 46.595 3.35809C46.595 3.78537 46.2492 4.13308 45.8241 4.13308H43.6829V2.58311ZM77.4301 34.3561C77.4301 42.3799 70.9367 48.9079 62.9549 48.9079H56.788C56.0783 48.9079 55.5031 49.4862 55.5031 50.1995V56.4852H53.9613V50.1995C53.9613 49.4862 53.3862 48.9079 52.6765 48.9079H46.5095C38.5278 48.9079 32.0343 42.3799 32.0343 34.3561V33.5811H33.5761V34.3561C33.5761 41.5255 39.378 47.3581 46.5097 47.3581H62.9551C70.0868 47.3581 75.8887 41.5255 75.8887 34.3561V33.5811H77.4305L77.4301 34.3561Z" stroke="#A07B50" mask="url(#path-1-inside-1)"/>
<path d="M54.732 20.6653C48.923 20.6653 44.1968 25.4165 44.1968 31.2563C44.1968 36.594 48.1351 39.7808 54.732 39.7808C61.3289 39.7808 65.2673 36.594 65.2673 31.2563C65.2674 25.4165 60.5413 20.6653 54.732 20.6653ZM54.732 37.1977C51.7571 37.1977 46.7663 36.4258 46.7663 31.2563C46.7663 26.8408 50.3396 23.2485 54.732 23.2485C59.1244 23.2485 62.6977 26.8408 62.6977 31.2563C62.6977 36.4258 57.7069 37.1977 54.732 37.1977Z" stroke="#A07B50" mask="url(#path-1-inside-1)"/>
<path d="M49.593 10.3327C46.967 10.3327 45.2247 13.5976 45.2247 15.7574C45.2247 18.1789 47.1842 20.1488 49.593 20.1488C52.0018 20.1488 53.9613 18.1789 53.9613 15.7574C53.9611 13.5978 52.2189 10.3327 49.593 10.3327ZM49.593 17.5657C48.6012 17.5657 47.7942 16.7546 47.7942 15.7574C47.7942 14.5359 48.8197 12.9159 49.593 12.9159C50.3663 12.9159 51.3918 14.5359 51.3918 15.7574C51.3916 16.7544 50.5848 17.5657 49.593 17.5657Z" stroke="#A07B50" mask="url(#path-1-inside-1)"/>
<path d="M59.8712 10.3327C57.2453 10.3327 55.5029 13.5976 55.5029 15.7574C55.5029 18.1789 57.4624 20.1488 59.8712 20.1488C62.28 20.1488 64.2395 18.1789 64.2395 15.7574C64.2395 13.5978 62.4972 10.3327 59.8712 10.3327ZM59.8712 17.5657C58.8794 17.5657 58.0724 16.7546 58.0724 15.7574C58.0724 14.5359 59.0979 12.9159 59.8712 12.9159C60.6445 12.9159 61.67 14.5359 61.67 15.7574C61.67 16.7544 60.863 17.5657 59.8712 17.5657Z" stroke="#A07B50" mask="url(#path-1-inside-1)"/>
<path d="M68.0939 16.5323C65.4679 16.5323 63.7256 19.7972 63.7256 21.957C63.7256 24.3786 65.6851 26.3484 68.0939 26.3484C70.5027 26.3484 72.4622 24.3786 72.4622 21.957C72.4622 19.7972 70.7198 16.5323 68.0939 16.5323ZM68.0939 23.7651C67.1021 23.7651 66.2951 22.9541 66.2951 21.9568C66.2951 20.7353 67.3206 19.1154 68.0939 19.1154C68.8672 19.1154 69.8927 20.7353 69.8927 21.9568C69.8925 22.9541 69.0857 23.7651 68.0939 23.7651Z" stroke="#A07B50" mask="url(#path-1-inside-1)"/>
<path d="M41.3703 16.5323C38.7444 16.5323 37.002 19.7972 37.002 21.957C37.002 24.3786 38.9615 26.3484 41.3703 26.3484C43.7791 26.3484 45.7386 24.3786 45.7386 21.957C45.7386 19.7972 43.9963 16.5323 41.3703 16.5323ZM41.3703 23.7651C40.3785 23.7651 39.5715 22.9541 39.5715 21.9568C39.5715 20.7353 40.597 19.1154 41.3703 19.1154C42.1436 19.1154 43.1691 20.7353 43.1691 21.9568C43.1689 22.9541 42.3621 23.7651 41.3703 23.7651Z" stroke="#A07B50" mask="url(#path-1-inside-1)"/>
</symbol><symbol id="twitter-icon" viewBox="0 0 16 12">
<path d="M14.1872 5.335C15.0858 5.25429 15.6953 4.80953 15.9299 4.20606C15.6058 4.42285 14.5995 4.6592 14.0438 4.43411C14.0166 4.29196 13.9861 4.15694 13.9563 4.03504C13.5328 2.34228 12.083 0.978527 10.5639 1.14328C10.6868 1.08925 10.8115 1.03895 10.9358 0.993795C11.103 0.928593 12.084 0.754813 11.9296 0.377812C11.7994 0.046209 10.6007 0.628417 10.375 0.704514C10.673 0.582532 11.1657 0.372709 11.2185 0C10.762 0.0681592 10.314 0.303091 9.96774 0.644697C10.0927 0.498214 10.1876 0.319696 10.2077 0.127571C8.9903 0.974275 8.27916 2.68129 7.70365 4.33716C7.25176 3.86037 6.85123 3.48491 6.49193 3.27642C5.48394 2.68793 4.27872 2.07393 2.38681 1.30932C2.32874 1.99079 2.69638 2.89691 3.75574 3.49948C3.52622 3.46603 3.1065 3.54067 2.77082 3.62819C2.90753 4.40888 3.35399 5.05208 4.56267 5.36311C4.01029 5.4028 3.72483 5.53964 3.46611 5.83459C3.71769 6.37756 4.33158 7.01659 5.43592 6.88541C4.20812 7.46154 4.93529 8.52848 5.93435 8.36936C4.23003 10.2859 1.54298 10.145 0 8.54205C4.02863 14.5185 12.786 12.0765 14.091 6.32005C15.0688 6.32912 15.6436 5.95131 16 5.53478C15.4367 5.63886 14.6201 5.5313 14.1872 5.335Z" fill="white"/>
</symbol><symbol id="unfurl-icon" viewBox="0 0 16 16">
<path d="M8 0V16M0 8H16" stroke="#A07B50" stroke-width="2"/>
</symbol><symbol id="vk-icon" viewBox="0 0 18 10">
<path d="M17.8396 8.91937C17.7912 8.8405 17.4919 8.20732 16.0518 6.90591C14.5442 5.54315 14.7467 5.76443 16.5626 3.40809C17.6685 1.97303 18.1107 1.09665 17.9723 0.722004C17.8407 0.364883 17.0273 0.459093 17.0273 0.459093L14.3226 0.474429C14.3226 0.474429 14.1223 0.448138 13.9727 0.53468C13.8275 0.620126 13.7341 0.81731 13.7341 0.81731C13.7341 0.81731 13.3055 1.92811 12.7339 2.8724C11.529 4.86505 11.0463 4.97022 10.8494 4.84643C10.3915 4.55832 10.5063 3.68743 10.5063 3.06959C10.5063 1.13828 10.8067 0.333114 9.9201 0.124976C9.62533 0.0559615 9.40932 0.00995199 8.65664 0.00228373C7.69132 -0.00757546 6.87338 0.00557011 6.41097 0.225759C6.1027 0.372551 5.86531 0.700095 6.01044 0.718718C6.18933 0.741723 6.59436 0.824978 6.80925 1.1098C7.08715 1.47678 7.07702 2.30276 7.07702 2.30276C7.07702 2.30276 7.23678 4.57585 6.70462 4.85848C6.33897 5.05238 5.8383 4.65692 4.76385 2.8483C4.21369 1.92263 3.7974 0.898375 3.7974 0.898375C3.7974 0.898375 3.71752 0.707763 3.57464 0.605885C3.40138 0.482098 3.15836 0.442661 3.15836 0.442661L0.586419 0.457997C0.586419 0.457997 0.200516 0.468952 0.0587555 0.632177C-0.0672538 0.777873 0.0486297 1.07803 0.0486297 1.07803C0.0486297 1.07803 2.06253 5.66474 4.34194 7.97727C6.43347 10.097 8.8074 9.95787 8.8074 9.95787H9.88298C9.88298 9.95787 10.2081 9.92282 10.3735 9.74864C10.5265 9.5887 10.5209 9.28854 10.5209 9.28854C10.5209 9.28854 10.4995 7.88306 11.1701 7.67602C11.8305 7.47226 12.6788 9.03439 13.5777 9.6358C14.2573 10.0904 14.7737 9.99074 14.7737 9.99074L17.178 9.95787C17.178 9.95787 18.4359 9.88229 17.8396 8.91937Z" fill="white"/>
</symbol></svg>