<svg width="47" height="38" viewBox="0 0 47 38" fill="none" xmlns="http://www.w3.org/2000/svg">
<path d="M24.3428 22.3027C24.3428 27.2181 23.3255 30.9779 21.291 33.582C19.2565 36.1862 16.278 37.4883 12.3555 37.4883C8.48177 37.4883 5.51953 36.2106 3.46875 33.6553C1.41797 31.0999 0.368164 27.4378 0.319336 22.6689V16.126C0.319336 11.1618 1.34473 7.39388 3.39551 4.82227C5.46257 2.25065 8.43294 0.964844 12.3066 0.964844C16.1803 0.964844 19.1426 2.24251 21.1934 4.79785C23.2441 7.33691 24.2939 10.9909 24.3428 15.7598V22.3027ZM17.2871 15.125C17.2871 12.179 16.8802 10.0387 16.0664 8.7041C15.2689 7.35319 14.0156 6.67773 12.3066 6.67773C10.6465 6.67773 9.41764 7.32064 8.62012 8.60645C7.83887 9.87598 7.42383 11.8698 7.375 14.5879V23.2305C7.375 26.1276 7.76562 28.2842 8.54688 29.7002C9.3444 31.0999 10.6139 31.7998 12.3555 31.7998C14.0807 31.7998 15.3258 31.1243 16.0908 29.7734C16.8558 28.4225 17.2546 26.3555 17.2871 23.5723V15.125ZM46.2666 37H39.2109V9.80273L30.7881 12.415V6.67773L45.5098 1.4043H46.2666V37Z" fill="#A07B50"/>
</svg>
