<svg width="28" height="28" viewBox="0 0 28 28" fill="none" xmlns="http://www.w3.org/2000/svg">
  <path d="M20.1872 13.335C21.0858 13.2543 21.6953 12.8095 21.9299 12.2061C21.6058 12.4229 20.5995 12.6592 20.0438 12.4341C20.0166 12.292 19.9861 12.1569 19.9563 12.035C19.5328 10.3423 18.083 8.97853 16.5639 9.14328C16.6868 9.08925 16.8115 9.03895 16.9358 8.9938C17.103 8.92859 18.084 8.75481 17.9296 8.37781C17.7994 8.04621 16.6007 8.62842 16.375 8.70451C16.673 8.58253 17.1657 8.37271 17.2185 8C16.762 8.06816 16.314 8.30309 15.9677 8.6447C16.0927 8.49821 16.1876 8.3197 16.2077 8.12757C14.9903 8.97428 14.2792 10.6813 13.7037 12.3372C13.2518 11.8604 12.8512 11.4849 12.4919 11.2764C11.4839 10.6879 10.2787 10.0739 8.38681 9.30932C8.32874 9.99079 8.69638 10.8969 9.75574 11.4995C9.52622 11.466 9.1065 11.5407 8.77082 11.6282C8.90753 12.4089 9.35399 13.0521 10.5627 13.3631C10.0103 13.4028 9.72483 13.5396 9.46611 13.8346C9.71769 14.3776 10.3316 15.0166 11.4359 14.8854C10.2081 15.4615 10.9353 16.5285 11.9343 16.3694C10.23 18.2859 7.54298 18.145 6 16.542C10.0286 22.5185 18.786 20.0765 20.091 14.3201C21.0688 14.3291 21.6436 13.9513 22 13.5348C21.4367 13.6389 20.6201 13.5313 20.1872 13.335Z" fill="#A07B50"/>
</svg>
